<?xml version="1.0" encoding="utf-8"?>
<!DOCTYPE svg PUBLIC "-//W3C//DTD SVG 1.0//EN" "http://www.w3.org/TR/2001/REC-SVG-20010904/DTD/svg10.dtd">
<svg version="1.0" xmlns="http://www.w3.org/2000/svg" width="3718px" height="3091px" viewBox="0 0 3718 3091" preserveAspectRatio="xMidYMid meet">
 <g fill="#000000">
  <path d="M942 2913.80 c-1.60 -2.80 -1.80 -9.80 -1 -21 l1.40 -16.80 8.80 0 8.80 0 0 8.80 c0 4.80 -1 9.20 -2.20 9.60 -3.40 1.20 3.80 7.60 8.40 7.60 3.20 0 3.80 1.40 3.80 8 l0 8 -13 0 c-11 0 -13.20 -0.60 -15 -4.20z"/>
  <path d="M1393.40 2762.60 c-0.80 -0.60 -1.40 -4.40 -1.40 -8 0 -6.80 0 -6.80 8.60 -6.20 8.20 0.60 8.40 0.80 9 8.20 0.60 7.40 0.60 7.40 -7.20 7.40 -4.20 0 -8.40 -0.60 -9 -1.40z"/>
  <path d="M165.60 2682 c-4.80 -5.20 -5.60 -7.80 -5.60 -17.60 0 -9.60 1 -12.40 5.60 -17.40 6.60 -7.40 19.20 -15 24.80 -15 2.20 0 6.40 -1.20 9.20 -2.80 9 -4.40 19 -7.60 29.40 -9.20 5.60 -0.80 15.80 -3.40 23 -5.80 8.60 -3 20.20 -4.80 34 -5.60 20 -1 21.20 -0.80 25 3.40 3.20 3.40 4 7.20 4 17.20 0 12 -0.60 13.20 -7.60 20.40 -6.40 6.60 -10 8.40 -23 11.20 -8.40 2 -18 4.40 -21.40 5.60 -3.20 1 -13.60 3.60 -23 5.60 -21.20 4.60 -27 6.40 -37.40 11.80 -5.80 2.80 -12 4.20 -20 4.20 -10.40 0 -12.20 -0.80 -17 -6z"/>
  <path d="M382.60 2625.20 c-8 -3.60 -10.60 -8.60 -10.60 -20 0 -7.20 1.20 -10.40 6 -15.80 5.60 -6.40 21.20 -13.40 30.20 -13.40 2 0 4.20 -0.80 4.80 -2 0.60 -1 2.80 -2 4.80 -2 2 0 5.20 -1.80 7.20 -4 2 -2.20 6.80 -4.40 10.80 -5 4 -0.80 8.80 -2 10.60 -3.20 6.20 -3.20 22.20 -2 29 2.20 11.40 7 11.60 25.20 0.60 40.80 -6 8.40 -7.40 9.20 -14.80 9.20 -5 0 -12 2 -17.60 5 -16 8.60 -50 13.20 -61 8.20z"/>
  <path d="M145.60 2571.80 c-4.20 -2.20 -7.60 -5.20 -7.60 -6.80 0 -1.60 -0.80 -3 -2 -3 -1.20 0 -2 -5.40 -2 -12 0 -11.80 0.20 -12.20 10.60 -23 6.60 -6.80 12.40 -11 15 -11 2.40 0 8.80 -2.20 14 -5 5.20 -2.60 19.80 -7.60 32.40 -10.80 24 -6.40 43 -12.60 45.40 -14.80 0.60 -0.80 3.20 -1.40 5.60 -1.40 2.40 0 6 -1.40 8.20 -3 2 -1.60 6.20 -3 9.20 -3 3 0 6 -0.80 6.60 -2 0.60 -1 4.60 -2 8.60 -2.20 8.80 -0.20 17.80 -3.40 24.60 -8.80 4.60 -3.60 5 -5.20 4.20 -16 -1.40 -21.20 5.60 -31 22.20 -31 9.20 0 15.60 4 20 12.60 4.20 8.20 5.60 8.80 9.40 4.40 1.40 -1.60 4 -3 6 -3 2 0 4.60 -1.40 6 -3 1.40 -1.60 4.40 -3 6.80 -3 2.40 0 7 -2.60 10 -5.80 3 -3.20 8.40 -6.20 11.80 -6.80 10.60 -1.40 25.60 -7.80 39.40 -16.60 7.20 -4.60 20.20 -12.20 29 -16.80 8.80 -4.80 18.80 -10.40 22 -12.80 3.40 -2.40 8.80 -5.60 12 -7.20 3.40 -1.60 9.60 -5.60 14 -8.60 4.40 -3 11.60 -7.80 16 -10.80 11.60 -7.60 34.80 -27.20 34.80 -29.60 0.20 -1.20 3.20 -3.60 6.80 -5.60 3.40 -2 10 -6.80 14.40 -11 4.40 -4 17 -15 27.80 -24.40 11 -9.40 22 -18.80 24.40 -21 2.40 -2.20 10 -9 16.80 -15 17.20 -15.40 50 -48.40 50 -50.40 0 -0.80 1.80 -1.60 4 -1.60 2.20 0 4 -1 4 -2 0 -2.20 31.80 -34 34 -34 2.40 0 30 -30.40 40.60 -44.40 5.60 -7.60 10.80 -13.60 11.60 -13.60 0.80 0 3.20 -3 5.60 -6.40 2.20 -3.60 8.60 -12.80 14 -20.60 5.60 -7.60 12.80 -18.80 16.40 -24.40 3.40 -5.80 7 -10.60 8 -10.60 1 0 1.80 -1 1.80 -2 0 -1.20 3 -5 6.60 -8.60 3.80 -3.40 7.40 -7.80 8.20 -9.40 0.60 -1.60 4 -6.60 7.40 -11 3.20 -4.40 8.20 -11.40 11 -15.80 2.80 -4.20 7.80 -10.20 11 -13.40 3.20 -3.20 5.80 -6.80 5.80 -8.20 0 -1.40 2 -4.80 4.60 -7.60 2.40 -2.80 6.80 -8.60 9.40 -13 2.60 -4.40 5.40 -8.40 6 -9 5 -4 26 -47 26 -53.40 0 -1.20 1.60 -5.60 3.80 -10 2 -4.20 7.20 -18.40 11.40 -31.60 4.20 -13.20 9.80 -28.20 12.20 -33.40 2.60 -5.40 4.60 -10.40 4.60 -11.40 0 -0.80 1.80 -3.80 3.80 -6.60 6.20 -7.80 12.60 -29.20 14.40 -48.40 1 -11 2.80 -19 4.80 -21.20 1.60 -1.80 3 -4.80 3 -6.40 0 -1.80 1.20 -4.20 2.80 -5.60 1.60 -1.20 3.20 -4.20 3.60 -6.60 0.80 -6.20 9 -9.80 20.20 -8.80 7.60 0.60 11.20 2.20 16 7 l6 6.20 0 24.60 c0 29 -3.60 47 -12.40 62.20 -3.40 6 -6.20 12.40 -6.20 14 0 1.80 -2.20 5.60 -5 8.60 -2.80 3 -5 7.40 -5 9.80 0 2.40 -1.80 6 -4 8 -2.20 2 -4 4.80 -4 6.20 0 2.60 -8 30.20 -12.20 41.80 -1.20 3.40 -2.60 8.20 -3.20 11 -1.20 6.60 -6.20 17.60 -8.60 19 -1.20 0.60 -2 3 -2 5 0 2 -1.40 5 -3 6.80 -1.60 1.60 -3 4.60 -3 6.60 0 2.20 -2.60 7 -6 10.60 -3.20 3.60 -6 7.40 -6 8.20 0 1 -1.80 3.20 -3.80 5.20 -2 2 -4.80 7.40 -6 12 -1.40 4.60 -3.40 9.20 -4.80 10 -1.60 0.80 -5.60 5.80 -9.20 11.20 -3.60 5.20 -8 11 -10 13 -2 1.80 -5.80 7.40 -8.40 12.20 -2.60 4.80 -5.80 10.60 -7.20 12.80 -2.40 4.20 -12.40 16.60 -19 23.60 -2 2.20 -3.60 4.20 -3.60 4.80 0 0.60 -1.40 2.60 -3 4.60 -7.80 8.60 -20.40 25.80 -25 33.40 -2.80 4.80 -6.40 10.20 -8 12.40 -1.80 2 -5.60 7.20 -8.60 11.80 -3 4.40 -7 9.80 -9 12 -11 12.40 -20.40 23.40 -27.40 32 -4.40 5.20 -15.40 17 -24.60 25.80 -9.20 8.80 -23.20 22.60 -31 30.80 -8 8.20 -17.60 17.60 -21.40 21 -3.80 3.40 -18 17.20 -31.60 30.80 -13.80 13.40 -25.80 24.40 -26.80 24.40 -1 0 -9 6.60 -17.60 14.60 -21.80 20 -47.80 42.60 -63.20 54.40 -7 5.60 -16.40 13.80 -20.60 18 -6.40 6.80 -22.20 18 -28.80 20.80 -1 0.40 -3.40 2.20 -5.40 4 -7.80 7.40 -14.60 12.60 -19.60 14.60 -3 1.40 -12.60 7 -21.40 12.60 -8.80 5.80 -22.20 13.60 -29.60 17.60 -7.40 4 -15.60 8.60 -18 10.40 -2.40 1.60 -5.40 3 -6.80 3 -2.20 0 -40 17.20 -50.60 23 -2.80 1.60 -10.40 5.60 -16.80 9.20 -6.60 3.40 -15.20 8.40 -19 10.80 -4 2.60 -9.80 5.40 -13.20 6.20 -3.20 0.80 -9.20 3.40 -13 5.80 -6.80 4.40 -27 14 -35 17 -17.60 6.40 -22.60 7.80 -39 12.20 -5 1.20 -15.80 4.80 -24 7.80 -8.20 3.20 -20 6.60 -26 8 -10 2.20 -25.20 8 -47.40 18.20 -10.80 4.80 -21.60 4.80 -31 -0.40z"/>
  <path d="M351.20 2558 c-3 -3.20 -3.60 -6.20 -3 -20.80 1 -20.40 3.20 -23 19.20 -23.20 8.80 0 11.60 1 17.60 6.20 6.60 5.80 7 6.80 7 19 0 10.40 -0.80 13.40 -4.80 17.60 -4.20 4.60 -6.20 5.20 -18.40 5 -10.80 0 -14.60 -0.80 -17.60 -3.80z"/>
  <path d="M581 2549.40 c-8.20 -5 -11 -9.80 -11 -19.60 0 -12.60 2.80 -19.80 7.80 -19.80 2.20 0 5 -1.80 6.20 -4.20 1.80 -3.20 4 -4 10.60 -3.60 14.60 0.60 15.40 0.40 15.40 -6.20 0 -5.40 0.60 -6 6 -6 3.20 0 8 1 10.80 2.20 4.20 2 7.20 1.60 17.60 -2.20 10.60 -3.80 14.60 -4.40 28.40 -3.20 19 1.60 24.20 4.40 27 14.60 4.80 17.40 0.40 29.40 -11.40 31.60 -4 0.80 -8.20 2 -9.40 3 -1 0.80 -6 2 -11 2.60 -13.80 1.80 -22.80 3.80 -25.20 5.60 -8.40 6.80 -53 10.40 -61.80 5.20z"/>
  <path d="M1797.40 2548 c-10 -3 -11.40 -5.60 -11.40 -19.20 0 -11.80 0.40 -12.80 6.60 -17.40 5.80 -4.60 8.80 -5 37.40 -6.20 26.80 -1.20 31.60 -2 35.20 -5.40 7.80 -7.40 39.80 -2.60 43.80 6.80 1.20 2.60 4.20 4.60 7.60 5 4.80 0.60 5.40 1.60 5.40 7.60 0 5 -0.80 6.80 -3.20 6.80 -1.80 0 -6.40 2.80 -10.20 6 -3.60 3.40 -7.80 6 -9 6 -1.20 0 -3.80 1.20 -5.40 2.60 -1.80 1.60 -8.40 3.80 -15 5.20 -14 3 -73.80 4.60 -81.80 2.20z"/>
  <path d="M2074 2532 c-1.60 -1 -6.40 -2 -10.40 -2 -11.80 0 -17.60 -7.20 -17.60 -22 l0 -11.60 8.60 -3 c4.60 -1.80 15.80 -3.60 25 -4.20 9 -0.60 18.20 -2 20.20 -3.20 2.20 -1 8.40 -2 14 -2 l10.20 0 0 -10.40 c0 -5.80 1.40 -13.20 3 -16.40 1.60 -3 3 -7.20 3 -9 0 -1.80 4.40 -7.80 9.60 -13.40 13.80 -15 21.60 -25.20 23.20 -30.20 0.80 -2.40 4.40 -6.20 8 -8.60 8.20 -5 9 -9.20 6.80 -33.20 -1.20 -12.40 -1 -19.20 0.60 -23.20 3.60 -8.60 1 -8.60 -6 -0.20 -3.40 4.20 -8.40 9.80 -10.80 12.60 -2.60 2.80 -5.80 8 -7.20 11.60 -1.60 3.60 -7 11 -12 16.20 -5 5.20 -15.20 17 -22.60 26.40 -13.80 17.80 -34.60 37.20 -44.20 41.40 -3 1.40 -9.40 2.40 -14.20 2.40 -9.40 0 -13.20 -3 -16.80 -13 -2 -5.80 -2 -5.80 -2.20 -1 -0.20 2.80 0.80 8.40 2 12.80 2.40 8.80 0.60 31.20 -2.60 31.20 -1.20 0 -4.60 2.20 -8 5 -4.80 4 -8 5 -17.60 5 -10.40 0 -12.40 -0.60 -18.60 -6.60 -8.80 -8.20 -10.80 -17.40 -7.60 -35.20 1.80 -9.80 1.80 -20.20 0.40 -39.80 -1.40 -18.20 -1.40 -33 0 -46 3.60 -34.60 3.60 -60.40 0.40 -85.40 -3.60 -27.20 -4.40 -82.40 -1.60 -123 1 -14.80 1.60 -47.60 1.40 -72.60 l-0.60 -45.60 7 -2.80 c4 -1.60 12.80 -3 20 -3 11.60 0 13 0.40 16.20 5.20 3.40 5.20 3.60 5.40 21.80 4 10 -0.80 25 -2.20 33.20 -3.20 8.20 -1 27.60 -2.80 43 -3.80 25.80 -2 40 -4.60 53.20 -9.80 5 -2 5.20 -2.40 3.40 -13.80 -1.80 -12.60 -0.80 -25.60 3.40 -48.60 4.20 -22.60 7.20 -59.80 7.20 -89.60 -0.20 -25.80 0 -26.80 4.80 -31.20 2.80 -2.60 8.80 -5.40 13.60 -6 4.60 -0.80 10.60 -2.80 13.20 -4.60 4.60 -3 12.40 -4 62.20 -8 6 -0.60 47 -1.20 90.80 -1.40 l80 -0.40 5.40 6.20 c8.20 8.80 9.80 24 3.80 34.60 -3.60 6.20 -4.20 9.40 -3 14.80 0.80 3.60 1.60 13 1.40 20.60 -0.20 19.40 -4.40 93.40 -5.40 97 -1.60 5.20 29.60 8 104.80 9.20 l68.80 1 6.60 5 c8.80 6.80 11.80 19.80 9.80 41.60 -0.80 9 -1.80 48.40 -2.20 87.60 l-0.60 71.20 30.40 -1 c52 -2 124.20 -2.40 126.40 -0.60 1 0.80 5.40 2.20 9.60 3 9.80 1.80 11.40 6 11.40 27.80 0 9.40 1 17.40 2.20 18.60 1.40 1.40 1.80 5.60 0.80 12 -4.60 30.40 0 133.40 6.40 140.80 3 3.40 3.60 15 0.80 16.60 -1 0.60 -2.80 5.20 -4 10 -1.80 7.60 -3.60 10 -10.80 14.20 -5.80 3.20 -11.80 5 -17.60 5 -7.60 0 -9.20 0.80 -12.20 6 -3.20 5.60 -4.20 6 -15.40 6 -18.40 0 -28.40 -4.40 -48.80 -21.60 -10 -8.40 -20.80 -17.80 -24 -20.80 -3.20 -3.20 -6.40 -5.60 -7 -5.60 -0.80 0 -6.20 -3.60 -12 -8 -5.80 -4.40 -11.60 -8 -13 -8 -1.40 0 -5.20 -2.60 -8.40 -6 -3.20 -3.20 -6.20 -6 -7 -6 -2.40 0 0.40 15 3.60 18.40 2.80 3.40 2.60 13 -0.60 24.60 -1.20 3.80 -0.40 4 7 3.40 20.80 -2 28 4.20 28 24 0 23.40 -1.40 24 -55.60 25.20 -49.80 1 -51.60 0.60 -53.40 -14.60 -1.80 -14.20 1.40 -21 12.40 -25 10.80 -4 11.40 -4.80 8 -10.40 -4.80 -7.40 -7.60 -27.60 -6.60 -48.80 l0.80 -19.60 -4 5.40 c-2.20 3 -5.20 5.40 -6.60 5.40 -3.20 0 -29 24.40 -29 27.40 0 1.20 -2.40 3.80 -5.40 5.60 -3.20 2 -7.80 6.20 -10.60 9.40 -7 8.40 -14.20 11.60 -26.80 11.60 -10.20 0 -11.40 -0.60 -16 -6.60 -3.40 -4.40 -5.20 -9.40 -5.20 -14.20 0 -6.40 1.80 -9.20 16.60 -24 9 -9.40 17.40 -17.80 18.40 -19 1.20 -1.20 9 -8.80 17.60 -17 17 -16.20 26 -20.20 42.20 -19 8 0.80 9.20 0.20 10.20 -3.60 1.60 -6.40 -1.20 -60.60 -3.20 -60.60 -3 0 -15.20 11.80 -23.80 23 -4.60 6 -13 14 -18.60 17.80 -16.60 11.20 -65.20 60.40 -70 70.60 -2.20 4.80 -12.60 10.60 -19.20 10.60 -4.80 0 -4.80 0.60 -4.40 43.40 l0.20 22.60 -9.60 7 c-7.80 5.80 -11.20 7 -19.80 7 -12 0 -22.60 -5 -22.60 -11 0 -2.20 -1.40 -7.60 -3 -12 -3.20 -9.20 -3.80 -23.20 -1.20 -26 2.60 -2.60 2.80 -7.60 2.60 -35.20 l-0.40 -23.40 -6.60 -1.20 c-3.60 -0.60 -10.20 -3 -14.40 -5.20 -4.40 -2.20 -8.80 -4 -10 -4 -1.20 0 -6 -4 -10.40 -8.80 -4.60 -5 -12.20 -11 -17 -13.40 -4.80 -2.40 -11.80 -7 -15.80 -10 -4 -3.20 -8.40 -5.80 -9.60 -5.80 -1 0 -3 -1.80 -4 -3.80 -1.20 -2 -6.40 -5.80 -11.60 -8.20 -5.40 -2.60 -12.20 -7.20 -15.60 -10.20 -12.80 -12.40 -19.60 -17.80 -22.40 -17.80 -4 0 -16.80 -8.60 -31.60 -21 -7 -6 -13.80 -11 -15 -11 -1.40 0 -1.80 16.20 -1 52.60 0.60 28.80 1 55.80 1 60 l0 7.40 8.60 0 c7.80 0 9.60 1 18.60 10.60 5.60 5.60 14 13 18.80 16.40 4.60 3.20 11.40 8.60 14.80 11.80 3.40 3.20 10.20 9 15.20 13 5 4 10.20 8.40 11.60 9.80 7.60 7 16.60 12.60 27 16.60 15.20 5.80 23.40 13.80 23.40 22.60 l0 6.80 11.60 0.80 c6.20 0.60 13.40 0.20 16 -0.60 2.60 -1 9.60 -1.80 15.60 -1.80 9.60 0 11.60 0.80 19 7.40 l8.20 7.40 -1.40 12.20 c-0.60 6.60 -2.20 13 -3.40 14.40 -1.60 2 -12.20 2.60 -41.80 2.60 -24.20 0 -40 0.80 -40.80 2 -1.60 2.80 -15.60 2.60 -18.40 -0.20 -1.20 -1.20 -4.40 -3.40 -7 -4.60 -3.80 -2 -4.60 -4 -5.20 -13.60 -0.60 -11 -1 -11.80 -8.80 -17 -4.40 -3 -9.60 -7 -11.40 -8.60 -6 -5.40 -26.20 -20 -29 -21.20 -1.60 -0.60 -3.20 -2.80 -3.80 -4.80 -0.60 -2.20 -4.20 -5.80 -8 -8 -3.80 -2.20 -9 -6.80 -11.40 -10 -2.60 -3.20 -7.40 -8 -10.80 -10.60 l-6.20 -4.80 0 33.60 0 33.60 -5.80 6 c-7 7.20 -13.40 7.80 -28.40 3 -12.60 -4.40 -14.80 -6.20 -14.80 -12.60 0 -9.80 -3 -11.20 -8.40 -4 -2.80 3.80 -5.60 9.20 -6.40 12.20 -0.60 3 -3 6.40 -5.20 7.60 -3 1.60 -4 4.20 -4 10.80 0 5.40 -1.20 9.60 -3 11.20 -1.60 1.40 -3 3.60 -3 4.80 0 3 -12.60 9.20 -18.60 9.20 -2.60 0 -5.40 0.80 -6.40 1.80 -1.20 1 -8.80 2.40 -17 3 -8.20 0.40 -18.60 1.40 -23 2.20 -4.40 0.60 -9.40 0.20 -11 -1z m706.20 -136.60 c-0.60 -5.80 -3 -8.20 -19.20 -21.20 -23 -18.40 -28.40 -23.40 -35 -31.40 -3.80 -4.80 -7.60 -8.60 -8.40 -8.60 -1.40 -0.20 -27.80 -19.80 -29.60 -22 -0.60 -0.80 -8 -7 -16.40 -13.80 l-15.60 -12.40 0 26.80 c0 14.80 0.60 28.20 1.20 30 0.80 2 3.60 3.20 7.80 3.20 7.20 0 17.20 4.40 25.60 11.40 3.20 2.40 7 4.60 8.60 4.60 1.60 0 2.80 0.80 2.80 2 0 1 3.80 3.80 8.60 6.20 8.40 4.40 18.40 11.80 27 20 2.40 2.40 8 6 12.40 8 4.40 2 8 4.80 8 6.20 0 1.40 4.80 5.40 10.60 9 l10.40 6.40 1 -9.40 c0.60 -5.20 0.60 -11.80 0.20 -15z m-727.20 13.60 c17.80 -16.40 26.80 -25.80 36 -38 5.80 -7.60 12.40 -16 14.80 -18.40 2.40 -2.40 4.20 -4.80 4.20 -5.40 0 -1 12.80 -20.20 17.40 -25.80 3.20 -4 23 -21.60 33.60 -30 2.20 -1.60 7 -5.60 10.80 -8.60 l6.60 -5.60 -0.60 -35.60 c-0.40 -19.60 -1.20 -35.60 -1.60 -35.60 -0.80 0 -56.80 56.80 -78.20 79.20 -8.20 8.80 -17.60 17 -21 18.40 -3.60 1.60 -11.20 2.40 -18.80 2 l-13 -0.60 -0.60 23 c-0.20 12.60 -1 31.60 -1.40 42 -0.60 10.40 -0.40 25.60 0.20 33.60 1.20 15.60 0.80 15.40 11.60 5.40z m437 -99.20 c6 -4.80 14.60 -12.40 18.80 -16.80 4.40 -4.40 11 -9.80 14.60 -12 7 -4.20 48.60 -48.20 48.60 -51.20 0 -1 1.80 -3.60 4 -5.80 3.20 -3.20 6.60 -4 16 -4 l12 0 0 -13.40 c0 -7.60 -0.60 -25 -1.40 -38.80 l-1.20 -25.20 -5.40 2.80 c-3.20 1.40 -6.60 4 -8 5.60 -1.40 1.60 -3.40 3 -4.20 3 -1 0 -9.20 7.40 -18.40 16.60 -20.80 21 -38.20 36.60 -48.60 44.40 -4.60 3.20 -13.60 10 -20 15 -15.20 11.60 -23 16.80 -27.20 18.40 -4.40 1.80 -5.20 8.20 -6.20 46.60 -0.80 41.80 -0.80 42 8.40 31.80 4 -4.60 12.20 -12.20 18.20 -17z m288.80 12.80 c1.60 -5.80 2.20 -55.20 0.60 -59.80 -1.40 -3.80 -3.40 -4.20 -28 -5.20 -14.40 -0.60 -33.20 -0.40 -41.40 0.20 l-15 1.20 6 3.20 c3.40 2 8.80 6 12 9 14.20 13.40 31.60 28 36.60 30.80 3 1.60 6.20 4.20 7.20 5.80 2.40 3.80 17.80 18.20 19.60 18.20 0.80 0 1.80 -1.60 2.40 -3.40z m-364 -90.80 c-0.40 -0.80 -6 0 -12.20 1.40 -21 5 -23.20 4.40 -31.40 -8.80 -4 -6.40 -10.20 -13.20 -13.60 -15.40 -3.60 -2 -11.20 -8 -17 -13 -13.80 -12.60 -34.80 -27.40 -44.20 -31.40 -12.80 -5.20 -39.20 -22.20 -50 -32.20 -11 -10.20 -18.20 -15.20 -19.60 -13.80 -1.80 1.80 -3.40 54.80 -2 68 l1.60 13.40 10.60 0 c12.60 0 20.60 4.20 34.40 18.60 5 5.20 10.40 9.40 11.80 9.40 2.20 0 12.40 6.20 29.80 18 33.60 23 77.20 51 82.40 53.20 3.60 1.60 8.80 2.80 11.60 2.80 2.80 0 5.20 1.20 5.40 2.60 0.20 1.20 0.80 -14.20 1.60 -34.60 0.80 -20.40 1.20 -37.60 0.80 -38.20z m-356.60 26.60 c3.80 -4.20 10.40 -12 14.80 -17.20 4.40 -5.20 11.40 -12.80 15.80 -16.80 15.60 -15 31.20 -31.40 31.20 -32.80 0 -1 1.20 -1.60 2.80 -1.60 1.40 0 7.40 -5.60 13.40 -12.40 6 -6.80 12.40 -14 14.40 -16 1.80 -2 3.40 -4.40 3.40 -5.40 0 -1.60 9.60 -9.40 20.60 -16.80 3.80 -2.60 7.20 -20.60 7.40 -38.80 l0 -10.40 -9.40 6.20 c-10.20 6.80 -14.60 10.40 -20.20 16.40 -1.80 2 -4.60 4.80 -6.20 6 -1.40 1.20 -9.60 8.60 -18.20 16.20 -23.60 21.40 -31.40 27.60 -52 42.40 -15.80 11.20 -20.60 13.80 -29 14.60 l-10 1 0.40 24 c0 13.20 0.80 31.40 1.60 40.60 l1.40 16.40 5.40 -4 c3.20 -2 8.60 -7.40 12.40 -11.60z m425.80 -75.40 c6.20 -5.40 13.40 -11.80 16 -14 11.40 -9.40 28 -24.60 44 -39.80 31.60 -30.20 49.80 -45.20 55 -45.20 4.40 0 5 -0.80 5 -7.40 0 -4 -1 -10.20 -2.40 -13.60 -2.20 -6.20 -2.80 -6.60 -15.40 -7.80 -22.40 -2 -22.20 -2 -22.20 5.40 0 3.60 -1.20 8.20 -2.40 10 -3.20 4 -20.20 11.40 -26.40 11.40 -2.60 0 -6.20 1.80 -8.20 4 -2 2.20 -8.40 7.20 -14.20 11 -5.80 3.80 -13 9.80 -16.20 13.20 -3 3.40 -8.80 7.80 -12.80 9.80 -4 2.20 -9.80 6 -13.20 8.80 l-5.80 4.80 0.40 23.80 c0.60 44 0.40 41.40 4.40 38.40 1.80 -1.40 8.40 -7.20 14.40 -12.80z m-69.40 -40.40 c-1 -56.60 -0.60 -55 -11.60 -60.80 -5 -2.60 -9 -5.40 -9 -6.20 0 -4 -39.20 -37.60 -44 -37.60 -1 0 -2.60 -1.20 -3.40 -2.60 -2.80 -4.40 -16.40 -14 -33.40 -23.40 -15.20 -8.40 -40.20 -24 -54.20 -33.80 -14 -10 -21.60 -14.40 -22.60 -13.20 -1.40 1.20 -1.20 12.20 0.20 51.60 0.40 13 1.40 24.20 2.20 24.80 0.60 0.80 1.20 6 1.20 11.80 0 9.40 0.60 10.80 4.60 11.80 2.40 0.60 6.20 3.80 8.40 6.80 10.20 14.40 29.80 32.20 48 43.40 3.40 2 6.40 4.20 7 4.80 1 1 3 2 21.80 10.20 6 2.60 13 7.20 16 10.20 2.80 3.20 6.60 5.60 8.20 5.60 1.60 0 7.40 4 12.80 9 5.20 5 10.60 9 11.80 9 1 0 5 3.20 8.80 7 3.80 3.80 8.40 7 10.20 7.20 1.80 0 6.20 1.80 9.40 3.80 3.40 2 6.60 3.80 7.20 3.80 0.60 0.20 0.80 -19.40 0.40 -43.20z m-361.40 -3.60 c10 -7.80 21.40 -18.20 42.60 -38.60 l17.20 -16.80 -9 1.20 c-5 0.60 -19.80 1.80 -33 2.40 -13.20 0.80 -25.20 2 -26.60 2.60 -1.80 1 -2.80 9.80 -3.60 30 -1.20 31.80 -2.20 30.40 12.40 19.20z m435.60 -82.20 c9.40 -8 9.40 -8.20 3.60 -7.20 -3.40 0.40 -10.60 -0.60 -16.20 -2.60 -5.60 -1.80 -11 -2.80 -12.20 -2 -1 0.60 -2 8 -2 16 l0 15 8.60 -5.60 c4.80 -3 13 -9 18.20 -13.60z m-74 -53.20 c0.60 -9.20 1.80 -20.80 2.40 -26 l1.40 -9.60 -6.80 0 c-8.80 -0.20 -19.60 -8.40 -38 -29 -14 -15.60 -34.40 -33 -39.20 -33 -1.40 0 -3.20 -1.20 -4 -2.80 -0.80 -1.60 -5.60 -4 -10.60 -5.80 -9.60 -3.20 -16 -11.80 -16 -21.80 0 -6.40 1.40 -6.20 -23.60 -3.40 -14 1.60 -20.60 3.40 -23.60 6 -2.20 2.20 -6 3.80 -8.20 3.80 -2.40 0 -4.80 1.40 -5.40 3.20 -1.80 4.80 -1.40 22.80 0.60 22.80 1 0 5.40 3.60 9.80 8 4.40 4.40 8.60 8 9.40 8 0.80 0 5.20 3 9.80 6.80 4.60 3.60 11 8 14.60 9.80 3.40 1.80 15.20 9.20 26 16.60 10.80 7.20 24.20 15.40 29.60 18.20 5.60 2.80 10.80 6.40 11.60 7.80 0.80 1.60 5.40 4.80 10 7 4.60 2.40 8.80 4.80 9.40 5.60 1.40 1.80 23.80 16.20 25 16.20 0.60 0 2.80 1.80 5 4 7.40 7.40 9.40 5.20 10.80 -12.40z m6 -104 c-1 -19.40 -2.40 -27.60 -5.40 -27.80 -1.40 -0.20 -12 -0.40 -23.80 -0.60 l-21.60 -0.20 14.60 13.60 c24.20 22.80 32.40 29.40 35.60 29.40 0.60 0 0.80 -6.60 0.60 -14.40z"/>
  <path d="M796.60 2479.40 c-7.80 -6 -8.40 -7.20 -8.60 -16 0 -8.20 0.80 -10.20 7.20 -16.20 4.80 -4.40 10 -7.20 15.40 -8 4.60 -0.80 10.20 -2.60 12.40 -3.80 2.20 -1.40 10.80 -5 19 -8.20 14.80 -5.40 18.60 -7 25.60 -11.40 2.60 -1.60 8.80 -1.80 19 -0.80 13 1.20 16.20 2.20 21.40 7 6.60 6.20 7.40 11.80 3.80 24.80 -2.40 8.40 -8.60 15 -14.20 15.20 -5.40 0 -20.40 6.40 -22.20 9.40 -0.80 1.40 -3.20 2.60 -5.20 2.60 -2 0 -7 1.40 -11.20 3.20 -8.60 3.60 -36.60 8.80 -47 8.80 -4.80 0 -9.60 -2.20 -15.40 -6.60z"/>
  <path d="M2934 2470.20 c-29.40 -1.60 -36 -5.20 -36 -20 0 -17.60 10.80 -24.20 40.20 -24 10.40 0 25.60 -0.80 33.80 -1.60 14.40 -1.60 15 -1.80 15.60 -7 0.60 -5 1.60 -5.60 7.60 -5.60 6.20 0 6.80 0.60 6.80 5.80 0 3.20 1.40 9 3 12.80 4.40 10.80 3.80 23.60 -1.60 31.60 -4.20 6.40 -5.40 6.80 -16.40 7.20 -6.60 0.20 -16 0.60 -21 1.20 -5 0.40 -19.40 0.20 -32 -0.40z"/>
  <path d="M3136 2457.80 c-27.20 -4.60 -32 -8 -32 -23.80 0 -14.80 3.40 -17.20 27.40 -20 42.60 -4.80 49.40 -2.40 51.60 19 1.20 11.20 0.80 13.80 -3 20 l-4.40 7 -14.20 -0.20 c-8 -0.20 -19.40 -1 -25.40 -2z"/>
  <path d="M1893.40 2446.60 c-7.40 -7.40 -9.40 -11 -9.40 -16 0 -3.60 0.80 -6.60 1.80 -6.60 1 0 2.20 -9 2.60 -20 0.40 -14.60 1.40 -20.60 3.60 -23 4.60 -4.40 24.60 -8.20 31.40 -6 6.60 2.40 9.80 13.20 11.80 40.40 1.20 16.20 0.80 18.80 -2.60 24 -2.20 3 -4.60 8 -5.40 11.20 -1.20 5.20 -1.80 5.40 -13 5.40 -11.20 0 -12 -0.40 -20.80 -9.40z"/>
  <path d="M1031 2415.60 c-9.80 -5.40 -13 -10 -13 -19.60 0 -13.60 6.80 -20.40 26 -26 8.20 -2.40 16.40 -5.20 18 -6.20 6.60 -4.20 20.60 -9.80 24 -9.80 2 0 4.20 -0.80 4.80 -1.80 0.80 -1 4.80 -2.40 9 -3.20 4.40 -0.80 11.40 -3 15.60 -5.20 9 -4.60 15.80 -4.80 25 -1 10.20 4.40 12.20 7.80 11.20 19.20 -0.80 8 -2.20 10.80 -6.80 14.40 -3.20 2.60 -7.40 6.20 -9.20 8.20 -2 1.80 -4.80 3.40 -6.20 3.40 -1.60 0 -4.40 1.80 -6.40 4 -2 2.20 -4.80 4 -6.20 4 -1.60 0 -3.80 1.80 -5.20 4 -1.40 2.20 -4.20 4 -6.20 4 -1.80 0 -5.40 1 -8 2.40 -2.40 1.20 -6 3 -8 4 -6.20 3 -33 7.60 -44 7.60 -5.80 0 -12.20 -1.20 -14.40 -2.40z"/>
  <path d="M1250.80 2342 c-21.60 -1.80 -26.80 -7.20 -26.80 -26.80 0 -9.80 3 -12 22.40 -18.20 9.60 -3 13.20 -3.20 24 -1.20 15.20 2.60 19.80 7 19.40 19 -0.40 12 -2.20 18.40 -7.20 24 -5 5.60 -6 5.60 -31.80 3.20z"/>
  <path d="M288.60 2286.60 c-7.20 -1.40 -14.20 -11.40 -16.40 -24 -4.20 -22.60 -6.80 -31.80 -11.60 -42.60 -4 -8.80 -4.80 -13 -3.80 -21 1.60 -13.80 7.60 -19.40 21.80 -20.60 10.40 -0.80 11.20 -0.60 17.40 6.40 10.40 11.40 15.80 22 17.40 34.20 0.60 4.40 2.80 11.40 4.80 15.40 6.60 13.20 4.80 39.80 -3.40 48.60 -4.60 5 -13 6.20 -26.20 3.60z"/>
  <path d="M1897 2201.20 c-9.20 -4 -13.60 -12 -12.40 -22 0.60 -4.40 2 -15.20 3 -23.60 1 -8.60 3 -17 4.40 -18.60 3.80 -4.60 30.20 -4.20 34.60 0.60 4.60 5 4.80 44.40 0.40 55.20 -4.60 10.80 -16.80 14.20 -30 8.40z"/>
  <path d="M219 2058.80 c-5 -5 -10.40 -17 -11.80 -26.40 -0.60 -4.80 -2 -10.20 -3 -12 -5.20 -10.40 -9 -27 -9.20 -40.20 0 -13.60 0.40 -15 5.40 -18.80 3 -2.20 9.60 -4.40 15.40 -5 8 -0.80 11 0 15.40 3.40 5.20 4 10.80 12.60 10.80 16.40 0 1 2.20 6.60 5.20 12.40 5.40 11.20 10.80 29.60 12.20 42.40 1 9.40 -5.40 25.80 -11.40 29 -6 3.20 -25.20 2.40 -29 -1.20z"/>
  <path d="M1901.40 1992.40 c-8.80 -5.40 -9.60 -13.80 -6.40 -56 1.80 -22.40 3.60 -24.40 22.60 -24.40 11.40 0 13.40 0.60 18.60 5.80 l5.80 6 0 25.60 c-0.40 36.20 -0.60 37.20 -11.20 42.20 -10.60 5.20 -21.80 5.60 -29.40 0.80z"/>
  <path d="M174.80 1892.60 c-2.80 -2 -8.80 -19.80 -8.80 -26 0 -2.60 -1.20 -6.80 -2.80 -9.20 -1.40 -2.40 -3.80 -9.80 -5.20 -16.40 -5.20 -24.20 -10 -39.60 -15 -48 -5.40 -9.40 -7 -27.60 -2.80 -35.40 2.80 -5.40 13.80 -9.60 24.80 -9.60 8.20 0 10.20 1 16.60 7.60 7.60 7.60 10.20 14 24.40 62.40 3.40 11.60 7.60 24.40 9.20 28.60 1.60 4 2.80 12.40 2.80 18.40 0 9.80 -0.80 11.60 -7.60 19.20 -7.20 7.60 -8.60 8.20 -20.60 9.20 -7 0.40 -13.80 0 -15 -0.80z"/>
  <path d="M1902.40 1805.60 c-2.40 -1.20 -5 -4.20 -5.60 -6.60 -0.60 -2.40 -0.80 -22.60 -0.40 -45 0.80 -39.40 1 -40.60 5.40 -44.20 5.20 -4.20 23.60 -5.20 30.20 -1.80 6.40 3.40 10.80 22.40 10.80 48 0.20 29.60 -3.20 46.60 -10 49.80 -6.20 2.80 -24.40 2.60 -30.40 -0.20z"/>
  <path d="M1910.40 1604.40 c-9 -6.80 -9.80 -11.60 -10.20 -51.40 0 -20.80 -0.60 -39.40 -1.40 -41.60 -0.60 -2 -0.60 -7.60 0 -12.20 1.20 -7.20 2.40 -9 8.40 -11.80 4.20 -2 12 -3.40 19.60 -3.40 11 0 12.80 0.60 14.80 4.60 5.20 9.80 9 27 8.80 40.40 -0.20 23 -3.60 69.80 -5.20 73.20 -2.80 6.40 -27.20 8 -34.80 2.20z"/>
  <path d="M963 1436.60 c-12.20 -1 -34.80 -6.40 -41.20 -9.60 -3 -1.60 -7 -3 -8.60 -3 -8 0 -25.60 -15.20 -36.60 -31.40 -10.20 -15.20 -11.20 -17.80 -12.80 -32 -0.80 -8.60 -1.40 -23.20 -1.20 -32.60 0.60 -15.80 1.20 -18.20 9.20 -33 7.60 -13.80 10.40 -17.20 21 -24 6.60 -4.40 20.20 -11.20 30.20 -15.20 10 -4 21.80 -9.60 26.20 -12.40 10.60 -7.20 27.40 -11.80 38.60 -11 l9.20 0.60 -0.80 -14.60 c-0.80 -18.20 2 -22.40 15.20 -22.40 10.80 0 16.80 5.60 21.60 20.20 3.80 11 11.20 21.40 31 43.80 7.40 8.20 17 21.20 21 28.80 7 12.80 7.80 15.60 8.60 33 1 23.20 -2.40 56.80 -7 68.60 -6.80 17.40 -11.40 22.40 -28.60 31.20 -9 4.60 -17.80 8.40 -19.80 8.40 -1.80 0 -4.20 0.80 -5.40 2 -1.60 1.60 -53.80 6.60 -59.80 5.60 -1 -0.20 -5.60 -0.60 -10 -1z m47 -44.40 c14 -3 25.80 -9.60 30.40 -17.20 2 -3.40 4.80 -16.60 6.80 -30.40 l3.40 -24.40 -6.20 -12.80 c-3.40 -7 -8.20 -14.40 -10.60 -16.60 -4 -3.60 -4.20 -3.60 -6.80 0 -2 2.80 -6.40 3.80 -18.60 4.60 -14.40 1 -16.40 0.60 -22 -3.40 -5.40 -4 -7.80 -4.40 -18.40 -3.40 -6.60 0.60 -14.20 2.40 -16.60 4 -2.40 1.40 -6.80 3.40 -10 4.20 -9.40 2.20 -27 19.20 -28.80 27.80 -0.60 3 -2 6 -2.80 6.60 -1 0.60 -1.80 5.60 -1.80 11.20 0 12 6 26 13.40 31.20 2.60 1.80 7.20 5.20 10.20 7.60 3 2.40 7.60 4.80 10.40 5.40 2.80 0.60 8.60 2.20 13 3.40 9.40 2.80 34.20 5.80 40 5 2.20 -0.40 9 -1.60 15 -2.80z"/>
  <path d="M548.60 1412.60 c-8 -4 -10.60 -10 -10.60 -25.20 l0 -12.20 15.60 -14.60 c8.40 -8 16 -14.60 16.80 -14.60 0.80 0 2 -2.20 2.80 -5 0.60 -2.80 2 -5 2.80 -5 2 0 14.20 -10.80 32.40 -28.40 6.60 -6.40 12.20 -11.60 12.60 -11.60 0.40 0 6 -5.20 12.60 -11.40 20.60 -19.80 48.80 -45.40 69 -62.60 7 -6 15 -14.40 17.60 -18.40 2.60 -4.20 5.60 -7.60 6.40 -7.60 1 0 9 -7.20 18 -16 34 -33.20 58 -56 59.40 -56 2.20 0 34 -31.60 34 -34 0 -1 1.40 -2 3 -2 1.60 0 3.80 -1.80 5 -4 1.20 -2.20 3.40 -4 5 -4 1.60 0 3.80 -1.80 5 -4 3 -5.60 23 -27 43.80 -47 9.20 -8.80 18.20 -17.60 20 -19.60 1.80 -2.20 6.60 -7.60 10.80 -12 4 -4.60 8 -9.80 8.40 -11.80 1.40 -3.80 14.80 -9.60 22.60 -9.60 10.20 0 23.20 5.20 25.80 10.20 3.20 6 3.40 29.60 0.40 37.20 -2.40 6.60 -5.20 8.60 -12.20 8.60 -2.80 0 -5.60 0.80 -6 1.60 -0.20 0.80 -9.60 9.80 -20.80 19.60 -11 10 -24.80 23.40 -30.60 30 -23.60 27 -69.60 71.80 -87.80 85.60 -6.40 5 -14 11.40 -16.60 14.40 -2.60 2.80 -12.40 13 -21.80 22.60 -9.40 9.40 -18.80 19.40 -21 22.20 -2.20 2.80 -6 6.60 -8.40 8.20 -5.20 3.60 -39 34.80 -65.80 60.80 -10.20 10 -30.40 29.20 -45 43 -32.60 31 -35.60 34.20 -37 38.60 -0.60 1.80 -1.80 3.40 -2.80 3.40 -1 0 -5.80 5.20 -10.40 11.40 -14.40 19.40 -15.20 20 -31.80 21.20 -11.40 1 -16.20 0.60 -21.20 -2z"/>
  <path d="M2918 1258.80 c-8.40 -3.60 -12 -9.40 -12 -20 0 -18.40 0 -18.40 52 -27 7.20 -1.20 20.40 -1.40 29.60 -0.80 9 0.80 26.40 1.40 38.80 1.40 26.80 -0.20 32.40 2 34.40 12.60 1.60 8.20 -0.20 26.80 -3 31.20 -1.60 2.80 -24.20 3.60 -62.80 2.20 -8.80 -0.40 -29 -0.20 -45 0.40 -16 0.60 -30.40 0.60 -32 0z"/>
  <path d="M3224.60 1256.40 c-2.20 -3.80 -23 -7.40 -55 -9.80 -12.80 -0.80 -13.40 -1.20 -16.40 -7.60 -6 -12.80 -3.80 -23.60 7.40 -33.60 6 -5.40 6.40 -5.40 24.20 -4.20 10 0.80 19.40 2 20.80 2.60 1.40 0.80 9.80 0.60 18.80 -0.40 13.60 -1.60 17.20 -1.40 21.80 1.40 3 1.80 7.60 3.20 10.20 3.20 2.40 0 7 2.40 10.20 5 4.80 4.40 5.40 6.20 5.40 18 0 8.80 -1 14.20 -2.80 16.20 -1.60 1.40 -3.20 3.60 -3.60 4.80 -0.40 1.20 -5.40 2.60 -11.20 3.40 -5.60 0.60 -10.40 2 -10.40 2.80 0 1 -3.80 1.80 -8.60 1.80 -6 0 -9 -1 -10.80 -3.60z"/>
  <path d="M3356 1258 c-1.60 -0.80 -11.60 -2.60 -22 -3.80 -29.60 -3.20 -36 -8.40 -36 -29 0 -6.20 1.20 -9 5 -12.40 4.40 -3.80 8 -4.40 37.40 -5.40 l32.60 -1 5.40 5.40 c4.80 4.80 5.20 7 6 24.20 0.60 19 0.60 19 -4.40 19.60 -2.80 0.40 -5.80 1.60 -6.80 2.60 -2.40 2.20 -13.20 2.20 -17.20 -0.20z"/>
  <path d="M2695 1254.60 c-4.40 -0.60 -8.60 -2 -9.40 -3.40 -1 -2 -9 -2.40 -33.40 -1.60 -26.80 0.80 -33.20 0.40 -39 -2.40 -3.80 -1.80 -7.80 -3.20 -9 -3.20 -3.60 0 -6.20 -7.40 -6.20 -17.40 0 -8.20 1 -10.80 5.60 -15 3 -2.80 7.20 -5.60 9.40 -6.40 8.40 -2.40 87.80 -3 95.80 -0.60 16.40 5 23.40 24.60 14.80 41.40 -4.20 8.40 -5.20 9 -12.60 9.20 -4.40 0.20 -11.60 -0.20 -16 -0.60z"/>
  <path d="M2439 1238.20 c-5.20 -2.20 -44.80 -5 -59.40 -4.40 -18 0.60 -29 -7 -31 -21.40 -1.40 -10.40 3.40 -18.60 13.20 -22.80 5.80 -2.40 15.40 -3 51.20 -2.60 40.80 0.40 44.60 0.80 52.60 4.80 l8.40 4.20 0 17.60 c0 16 -0.40 18.20 -4.60 22 -3.60 3.40 -7 4.40 -15.60 4.20 -6 0 -12.60 -0.80 -14.80 -1.60z"/>
  <path d="M1912 1214.40 c-6 -0.40 -11.80 -1.40 -12.80 -2.60 -1.20 -1 -3.80 -1.80 -6.20 -1.80 -2.20 0 -6.20 -1.40 -8.60 -3.20 -3.60 -2.40 -4.40 -5 -4.40 -13.80 0 -12 3 -20.40 7.80 -21.80 6.20 -1.80 53.80 -5 91.40 -6.20 l38.20 -1.40 5.60 5 c5 4.20 5.80 6.60 6.60 17.60 1 16 -1.20 18.40 -23 24.40 -12.80 3.40 -21.40 4.20 -49.60 4.20 -18.60 0.20 -39 0 -45 -0.40z"/>
  <path d="M2116.40 1214 c-5.40 -0.80 -10.60 -3.40 -14.40 -7 -5.20 -5 -6 -7.20 -6 -16.40 0 -9 0.80 -11 4.80 -13.80 6 -3.80 31.40 -7 65.20 -8 22.80 -0.80 25.80 -0.40 34 3.80 l9 4.40 0 15.40 c0 23.20 1.20 22.60 -45.60 22.60 -21.20 0.20 -42.20 -0.40 -47 -1z"/>
  <path d="M3288 1175 c-4.80 -2.40 -29.40 -6 -57.40 -8.40 -8.60 -0.80 -12.60 -0.40 -12.60 1.20 0 2.60 -12.40 3 -15.20 0.40 -1 -1 -15.80 -2.80 -32.80 -4.20 -17 -1.20 -31.80 -3.20 -32.80 -4.20 -1.20 -1 -3.80 -1.80 -6 -1.80 -9.20 0 -70.40 -15.80 -82.80 -21.40 -3.60 -1.60 -11.20 -4.20 -17 -5.80 -14.80 -4.20 -21.40 -7 -21.40 -9 0 -1 -1.80 -1.80 -4.20 -1.80 -2.20 0 -8 -2.60 -12.80 -6 -4.80 -3.20 -9.20 -6 -9.80 -6 -3.60 0 -23 -15 -24.80 -19.20 -1.40 -2.60 -3.60 -4.80 -5.40 -4.80 -1.60 0 -3 -1.20 -3 -2.80 0 -1.60 -1.20 -4.20 -2.40 -5.60 -3.80 -3.80 -18.20 -44.80 -33.60 -95.60 -4.40 -14.80 -10 -32.40 -12.20 -39 -2.20 -6.60 -6.40 -19.60 -9 -29 -2.80 -9.40 -5.60 -19.20 -6.60 -22 -1 -2.80 -3.20 -10.80 -5.20 -18 -6.60 -25.60 -7.60 -29.20 -12 -40 -2.40 -6 -6 -16 -7.80 -22 -2 -6 -6.60 -17.40 -10.40 -25.40 -3.80 -7.80 -6.80 -15 -6.80 -16 0 -4.20 -25 -50.40 -31.60 -58.40 -12.60 -15.40 -52.80 -54.80 -65.40 -64.40 -6.60 -5 -17.80 -12 -25 -15.80 -7.20 -3.60 -14.60 -7.60 -16.40 -8.80 -4.20 -2.60 -7.20 0 -4 3.20 3.20 3.20 3 15.80 -0.80 31.60 -1.60 7.20 -3.80 17.40 -4.80 22.80 -2 10.20 -5.80 19.40 -10.80 26 -4.80 6 -19.40 6.60 -28 1.20 l-7.20 -4.40 0 -17.20 c0 -9.60 1 -20.60 2.20 -24.40 1 -3.80 2.80 -12 3.80 -18 0.80 -6 2.20 -14.20 3 -18.20 1.40 -7.20 1.20 -7.20 -4.40 -6.40 -19 2.80 -30 5.20 -33.60 7.40 -2.20 1.40 -6.40 3.20 -9.40 3.80 -3 0.80 -9.60 5 -14.60 9.40 -5 4.40 -10 8 -11.20 8 -3 0 -56.60 54.20 -62.20 63 -2.80 4.40 -6.40 11.60 -7.60 16 -1.40 4.20 -5.60 12.60 -9.20 18.40 -3.80 5.60 -6.80 11.40 -6.80 12.40 0 1 -2.20 4.40 -5 7.40 -2.80 3 -5 6.20 -5 7 0 1 -2.20 4.20 -5 7.20 -7.80 8.80 -13.80 17.20 -16.80 22.80 -1.40 2.80 -4.80 7.80 -7.40 10.80 -2.60 3 -4.80 6.20 -4.80 7 0 0.80 -1.60 3.40 -3.40 5.60 -2 2.40 -8 10.40 -13.20 17.80 -5.20 7.60 -24.60 28 -42.80 45.60 -42.80 41.20 -96.60 95 -110.60 110.80 -6 6.80 -14 13.80 -17.60 15.40 -3.60 1.80 -8 6 -9.60 9 -1.60 3.20 -7.40 9.20 -12.60 13.60 -10.60 8.40 -40.60 26.20 -44.20 26.20 -1.20 0 -3.60 0.80 -5.60 1.80 -1.80 1 -9.60 4.60 -17.40 7.80 -7.60 3.40 -18 7.80 -23 10 -5 2.20 -13 5.60 -18.20 7.80 -5 2.20 -13.40 4.60 -18.60 5.40 -5.20 0.80 -13.20 2.80 -17.80 4.40 -7.80 2.80 -35.40 8.80 -57.40 12.80 -5 0.80 -21.60 2.60 -37 3.80 -15.40 1.40 -34 3.40 -41.40 4.60 -24 4 -36.20 -0.80 -41 -16.40 -5.40 -17.80 -0.20 -31.40 15 -38 7.60 -3.40 14.60 -4.20 43 -5 18.60 -0.40 39.40 -1.40 46.20 -2 11.80 -1.20 40.80 -7.40 51.20 -11 2.80 -0.80 11.80 -3.60 20 -6 37.40 -11 80.40 -30.40 99.20 -44.80 5.20 -4 17.40 -14.80 27.20 -24.20 9.80 -9.40 18.20 -17 18.60 -17 1 0 42.60 -40.20 106.60 -103 17.80 -17.60 36.20 -37.20 40.60 -43.80 12.20 -17.60 16.60 -24 17.80 -25.20 0.60 -0.60 2.80 -4.40 5 -8.40 2.20 -4.20 4.60 -7.60 5.40 -7.60 1 0 1.60 -1.40 1.60 -3 0 -1.60 0.80 -3 1.60 -3 1 0 4 -4.20 7 -9.40 2.80 -5.40 7 -11.60 9.20 -14 2.40 -2.40 4.20 -5 4.20 -5.80 0 -0.80 2 -4.20 4.60 -7.60 4 -5.20 14 -22.60 23.80 -41.20 3.40 -6.60 12.80 -19 21.60 -28.60 3.80 -4.20 8.20 -9.80 10 -12.40 5 -7.60 36.20 -37.40 48 -45.80 23.60 -16.80 42.80 -24.80 75.40 -31.20 24.20 -4.80 33.60 -5.80 46 -4.80 26.40 1.80 47.20 5.20 55.40 9 4.40 2.20 9.60 3.80 11.60 3.80 2 0 3.60 0.80 3.60 1.80 0 1 3 2.80 6.60 4.20 3.40 1.40 7.40 3.60 8.40 4.80 1.20 1.20 5.20 4.60 9.20 7.60 10.40 7.80 17.20 13.40 28.60 24.20 5.60 5.40 12.40 10.80 15.20 12.40 5.60 3 31 29.80 38 40 13.20 19.60 19 28.80 21.20 34 1.40 3.40 5.60 11.60 9.40 18.40 3.80 6.60 8 15.60 9.40 20 1.40 4.20 5.60 13.60 9.20 21 3.80 7.40 6.80 15 6.80 16.80 0 1.80 1.80 7 3.80 11.60 7.40 16 10.20 24.40 14.20 41.20 2.40 9.40 4.80 18.80 5.80 21 1.80 4.40 4.80 13.80 13.40 42 3 10 6.60 20.80 8 24.40 1.60 3.40 2.80 7.40 2.80 9 0 3.60 6.60 24 12 37.60 2.40 6 5.60 15.60 7 21 2.80 11 6.60 22 9.20 27.40 1 2 1.80 4.40 1.80 5.60 0 1.20 3 6.60 6.80 12 3.80 5.40 7.20 10.60 7.60 11.40 1 2.40 16 13.60 20.20 15.20 1.80 0.60 3.40 2.20 3.40 3.20 0 4 52.60 25.60 72 29.60 2.80 0.40 6.40 1.40 8 2.20 3.60 1.40 26.60 5.80 43.80 8.40 7 1 13.60 2.80 15 3.80 3.60 2.80 39.20 5 39.20 2.40 0 -3.20 13.20 -2.60 16.60 0.60 2 2 7.20 2.80 16.60 2.80 23.60 -0.40 39.60 0.60 40.80 2.40 0.60 0.80 22.20 1 48 0 58 -1.80 68.60 -0.60 80.60 10 l8.40 7.60 -0.20 14.40 c-0.20 8 -1.40 16.60 -2.80 19 -3.40 6.40 -15 8.40 -46 7.60 -19.20 -0.60 -53 1.60 -54.80 3.60 -2.80 2.60 -13.20 1.80 -19.20 -1.20z"/>
  <path d="M582 1144 c-27.60 -3.80 -33.60 -6.40 -50.20 -22.60 -17.20 -16.80 -30.80 -42.40 -34 -64.40 -4.80 -32.80 -4.80 -33.20 2.20 -47.80 3.80 -8.40 10 -17.40 15.60 -22.80 11.80 -11.20 31.20 -25 40.40 -28.40 3.80 -1.40 8.40 -3.80 10.20 -5.40 1.60 -1.40 4.40 -2.60 6 -2.60 1.60 0 3.80 -0.80 5 -1.60 5 -4.40 25.20 -7.20 49.20 -7 22.60 0.40 26.60 1 36.20 5.40 6.80 3.40 11.60 7.20 13.20 10.60 1.40 3 5 8.60 8 12.40 3 4 6.20 8.60 6.80 10.20 0.80 1.60 4 7.60 7.40 13 15.60 26.40 16.60 29.40 15.60 52.60 -0.60 19.20 -1.40 22.80 -7.40 35.20 -10.40 21.40 -24.60 41.20 -29.60 41.20 -1.40 0 -2.60 0.80 -2.60 1.80 0 1 -2.40 2.40 -5.40 3.20 -3.20 0.60 -7.20 2.60 -9 4.40 -1.80 1.60 -6.20 3.60 -10 4.60 -3.60 1 -9.20 2.60 -12.60 3.60 -16 5.40 -21.20 6.40 -32.20 6.20 -6.40 -0.20 -16.80 -1 -22.80 -1.80z m13.20 -48 c3.60 0 7.20 1 7.80 2 1.40 2.40 14.80 0.60 18 -2.20 1 -1 4.20 -1.80 7.40 -1.80 9.60 0 26.40 -19.60 37.60 -44 4.40 -9.40 0.20 -21.80 -15.60 -46.40 -4.20 -6.60 -6.20 -7.80 -14.60 -8.80 -5.20 -0.80 -10 -2.60 -10.60 -4 -1.40 -3.40 -15.80 -3.80 -25.40 -0.60 -3.80 1.40 -11 5.40 -16.40 9 -5.20 3.80 -11.60 6.80 -14.20 6.80 -3.40 0 -5.40 2 -8 7.80 -2 4.20 -5.60 8.60 -8.20 9.80 -3.40 1.60 -5.20 4.80 -6.80 12.40 -3 13.60 -2.80 15 1.60 23.60 2.20 4 5.60 11.20 7.60 15.80 3.80 8.80 16.80 20.60 22.80 20.60 2 0 4.20 1 5 2.20 0.80 1.60 1.80 1.60 3.40 0 1.20 -1.20 5.20 -2.20 8.60 -2.20z"/>
  <path d="M2613.20 1141 c-4.20 -4.40 -6 -15.40 -4 -26.60 1 -5.20 1.40 -18.60 1 -29.80 -0.60 -18.80 -0.40 -20.80 3.60 -24 2.20 -2 5.20 -7.20 6.60 -11.60 3 -9.20 9 -13 21 -13 6 0 10 1.40 13.80 4.60 4.80 4.20 5.40 6.40 6.40 20.20 0.80 14.80 -3 34 -8 40.20 -0.80 1 -1.60 7 -1.60 13.20 0 13.20 -1.80 18.80 -7.80 25.40 -3.60 3.60 -6.60 4.40 -16.20 4.40 -7.80 0 -12.80 -1 -14.80 -3z"/>
  <path d="M2631 977 c-3.80 -3.60 -5 -7 -5 -13.40 0 -13.20 13.20 -63.40 17.40 -66.80 2 -1.40 7.80 -2.80 13 -2.80 16.40 0 20.80 8.60 20.40 41 0 15.80 -0.80 19.40 -5.80 28.80 -6.80 12.60 -14.80 18.20 -26.60 18.20 -6.40 0 -9.80 -1.20 -13.40 -5z"/>
  <path d="M2636.60 851.80 c-3 -3 -3.60 -26 -0.80 -31.40 2.40 -4.60 5.40 -19.40 8.40 -40.60 2.40 -17 2.60 -17.40 9.80 -21.60 8.40 -4.60 23.20 -5.60 28.20 -1.60 1.60 1.40 4.20 6.60 5.40 11.80 3 11.40 3.20 37 0.40 38.60 -1 0.60 -2 3.20 -2 5.60 0 5 -8 30.60 -11 35.80 -2.80 4.60 -34.60 7.40 -38.40 3.40z"/>
  <path d="M144 642.20 c-11 -1 -17 -2.60 -21.40 -5.80 -3.40 -2.40 -7.60 -4.40 -9.20 -4.40 -5.20 0 -13 -11.60 -15.20 -22.40 -1.20 -5.80 -3 -20 -4 -31.60 -5 -52.60 -8.20 -75 -14.40 -97.40 -2 -8 -3.80 -16 -3.80 -17.80 0 -5.60 -10.40 -35.60 -13.60 -39.20 -1.60 -2 -5.60 -3.60 -8.80 -3.60 -3 0 -5.60 -0.80 -5.60 -1.60 0 -0.80 -2.80 -3.20 -6 -5 -5.40 -3.40 -6 -4.60 -5.80 -14 0 -16.80 3.40 -23.80 13.80 -28.80 8.20 -4 11.20 -4.20 37 -3.20 21.20 0.60 32 0.20 44 -2.40 8.80 -1.80 20.60 -4 26 -5 5.60 -1 17.20 -3.20 26 -4.80 23.20 -4.40 26.60 -5.40 29.20 -8.40 3 -3.60 12.60 -3.60 19.80 0.20 5.60 3 6 3.80 6 15 0 9.40 0.60 12 3 12 2.20 0 3 2.20 3 8 0 6.40 -1.40 9.60 -6.60 15.20 l-6.40 7.20 -26 1 c-14.40 0.40 -29.60 1.80 -34 3 -12 3 -34.80 7.60 -44.40 9 -10.20 1.40 -10.20 1.80 -3.60 21.80 2.80 8 6.40 24.80 8 37.20 1.60 12.40 4 28.60 5 36 1.20 7.40 2 17.80 2 23.40 0 11 4.80 38.40 8.20 46.80 1.40 3.20 3.80 5.40 6 5.40 2.20 0 3.80 1 3.80 2.20 0 1.60 3 2 9.60 1 5.20 -0.80 16.20 -2.20 24.40 -3 8.20 -1 20.40 -3.20 27 -5 30.60 -8.20 44.60 1.60 42.40 30.20 -0.80 10.60 -1.80 13.20 -6.60 17.40 -4.60 4 -8 5 -16.80 5.20 -18.80 0.20 -48.40 3.60 -50.60 5.80 -2.40 2.40 -16.60 2.40 -41.40 0.40z"/>
  <path d="M471.20 595 c-1.60 -1.60 -3.60 -3 -4.40 -3 -1 0 -3.80 -2.40 -6.20 -5.40 -5.40 -6.20 -6.60 -23.20 -1.80 -26 2 -1 3.80 -7.60 5 -18.20 1.20 -9.20 2.60 -17.40 3.20 -18.60 0.80 -1 8.20 -1.80 16.80 -1.80 12.60 0 16.80 0.80 20.40 3.80 4.60 3.60 4.80 5 4.80 28.60 0 20.80 -0.60 25.40 -3.80 30.20 -7.40 11 -27.20 17 -34 10.40z"/>
  <path d="M317 587.20 c-14 -2.80 -25 -6.80 -25 -9.20 0 -1 -1.80 -2.20 -4 -3 -2 -0.60 -8 -5.40 -13 -10.40 -10.80 -11 -15 -23 -15 -42.60 0 -17.20 3.80 -29.40 15.60 -50.60 11.80 -20.80 20.20 -27.80 42.20 -34.60 16.20 -5 23 -5.60 44.80 -3.40 12 1 14 1.80 15.60 6 0.80 2.40 2.60 4.60 3.80 4.60 1 0 2 1.40 2 3 0 1.60 1 3 2 3 1.20 0 2 1.60 2 3.40 0 1.80 1.60 5.20 3.80 7.40 2 2.40 7 11.40 10.80 20.20 6.40 14.40 7.40 18.40 8.40 39 l1.40 23 -7.20 11 c-4 6 -7.60 12.20 -8.20 14 -2.60 7.20 -23.40 16 -47 19.80 -15.20 2.60 -17.20 2.40 -33 -0.60z m31.60 -48.40 c4.80 -0.80 9.20 -3.40 12.40 -7.20 4.20 -5 4.80 -7.20 3.80 -14.20 -2.20 -13.40 -8 -23.40 -13.80 -23.40 -3 0 -5 -1.20 -5 -2.80 0 -3.20 -3.40 -6.20 -9.20 -8 -9.80 -3 -26.80 20.80 -26.80 37.40 0 5.40 1.40 8.60 5 11.80 7.20 6.20 15.20 9.40 21 8.60 2.80 -0.60 8.40 -1.40 12.60 -2.20z"/>
  <path d="M807 578.20 l-8 -1.20 -0.60 -20.80 c-0.40 -18.60 0 -22 4.20 -31 2.80 -5.60 5.60 -15.20 6.40 -21.20 1.20 -8 3 -12.20 7.40 -16.60 5.40 -5.40 6.60 -5.80 18.60 -5 22.60 1.40 24.60 7.80 17.20 53.60 -4.20 25.60 -6.80 32.80 -14.20 39.40 -5.20 4.60 -13.80 5.40 -31 2.80z"/>
  <path d="M613.40 559.20 c-4.20 -1.60 -11 -3.40 -15 -4 -9.80 -1.80 -18.60 -5.20 -22.80 -8.80 -2.80 -2.40 -3.60 -6.20 -3.60 -17.40 0 -17.80 2.40 -20.40 19.60 -22.20 10.60 -1.20 12.40 -1 12.40 1.80 0 2 2.20 3.80 5.60 4.40 3 0.60 8.20 2 11.40 3.20 12.20 4.40 14.40 4.40 17.80 -0.60 2.40 -3.40 2.60 -4.80 0.80 -5.40 -1.40 -0.40 -4.60 -2.40 -7 -4.60 -3.60 -3.40 -7.80 -4.20 -25.80 -4.80 -23.80 -0.80 -26.40 -2 -33 -15.60 -3.80 -8.20 -5.20 -21.20 -2 -21.20 0.80 0 5.20 -2.40 9.40 -5.20 4.20 -3 10.60 -6.20 14.20 -7.20 6.20 -1.60 12.60 -6.40 12.60 -9.20 0 -0.80 -2.60 -4.40 -5.80 -8 -7.60 -8 -15.80 -8.40 -29.40 -1.20 -6.20 3.40 -14.20 5.60 -21.80 6.20 -10.40 0.80 -12.80 0.40 -17.80 -3.60 -5.60 -4.40 -5.60 -4.80 -4.80 -19 0.60 -8 2 -16 3.40 -17.60 1.40 -1.60 9.40 -5.20 17.80 -8.20 8.40 -3 17.40 -6.40 19.80 -7.40 2.60 -1.20 12.60 -1.80 24.20 -1.20 15.40 0.80 21.80 2 29.20 5.80 10.20 5 21.20 15 21.20 19 0 1.20 1.20 2.80 2.80 3.40 3.60 1.40 7.40 17.40 8.20 34.40 0.40 9.40 1.40 14.20 3.20 14.80 7.40 2.40 25.80 21.20 29 29.40 4.20 11.20 3.20 38.60 -2 48.60 -5.40 10.20 -16.80 20.60 -24.80 22.40 -11.20 2.60 -38.40 2 -47 -1z"/>
  <path d="M1184 514.60 c-1.60 -0.60 -5.60 -4 -8.60 -7.40 -5.60 -6 -5.60 -6.60 -4.60 -23.20 3.20 -48.40 3.80 -53 7.60 -58.40 3.60 -5.20 4.80 -5.60 18.60 -5.60 11.40 0 15.60 0.80 19.20 3.80 4.80 3.80 4.80 4.40 4.60 40.60 -0.20 40.40 -1.40 45 -11 47 -3.20 0.60 -6.40 2 -7 2.80 -1.20 2 -14 2.20 -18.80 0.40z"/>
  <path d="M989.40 507.80 c-4.20 -1 -9.60 -3.20 -12 -4.80 -2.40 -1.60 -5.60 -3 -7.40 -3 -6 0 -26.20 -20.20 -31.20 -31.20 -10 -22 -8.20 -63.20 4.40 -94.20 7.80 -19.80 22.80 -41 31.80 -45.40 13.20 -6.40 44.20 -11.40 47.80 -7.80 2 2.20 22.60 6.40 31.40 6.40 9 0.20 15.60 6.80 17.20 17.40 0.80 5.40 3.40 10 8.40 15 14 13.80 22.20 24.80 30.20 40 7.20 13.80 8 16.80 8 30 0 10.40 -1.20 16.80 -4 22.60 -4 8.20 -22 27.60 -29.60 31.80 -34.20 19.20 -52.60 25.40 -73.40 25.20 -7.60 -0.20 -17.40 -1 -21.60 -2z m46.20 -50 c16 -7.20 28 -16.80 31.60 -25.60 1.60 -3.60 2.80 -7.20 2.80 -8 0 -0.80 -3.60 -5.40 -8 -10.20 -4.60 -5 -11.60 -13.40 -15.80 -19 -13.20 -17.20 -25.80 -27 -34.40 -27 -4.20 0 -7.80 2.60 -14.60 10.40 -5 5.80 -9.20 12 -9.20 13.80 0 1.80 -1.80 7.20 -3.80 12 -8.40 18.80 -5 43 7 52.60 13 10.40 22.80 10.60 44.40 1z"/>
  <path d="M2677 503.60 c-3 -2.40 -6.80 -7.20 -8.20 -10.80 -3.20 -7.60 -3.60 -28.80 -1 -38.20 1 -3.60 3 -17.20 4.40 -30 2.20 -20.40 3.20 -24.20 7.60 -29.20 5 -5.60 5.80 -5.80 17 -4.80 9.80 0.80 12.80 2.20 18 7.20 5.80 6 6.20 7.20 6 20.80 0 7.80 -1.60 22.60 -3.20 32.40 -1.80 10 -3.80 24.20 -4.60 31.80 -1.20 12 -2.20 14.80 -7.40 19.60 -7.80 7.20 -20.40 7.80 -28.60 1.20z"/>
  <path d="M1345.20 477.60 c-3.20 -2.60 -9.60 -6.40 -14 -8.60 l-8.20 -4 -0.60 -13.20 c-0.40 -11 0.20 -14 3.80 -18.60 4.20 -5.20 5.20 -5.60 14.60 -4.40 14.60 1.60 29.60 4.40 33.80 6.20 11.20 4.80 20 -8.20 14.60 -21.40 -1.80 -4 -5.80 -9.40 -9.20 -12.40 -8 -6.60 -23.20 -7.20 -37.40 -1 -18.80 8 -43.20 7.40 -51.80 -1.20 -4.40 -4.40 -4.80 -6.60 -4.80 -21.40 0.20 -11.80 1.60 -20.60 4.80 -30.60 l4.80 -14 -4.80 -1.60 c-6.20 -2.20 -12.80 -14 -12.80 -23 0 -15.40 11.20 -23.20 50.80 -35.80 36.60 -11.40 43.20 -13 53.40 -12.20 7.60 0.60 9 1.40 13 8.60 5.20 9.20 6.40 26.80 2.20 35 -2 4 -4.60 5.20 -12.40 6.20 -5.60 0.80 -14 2.40 -19 3.60 -17.60 4.40 -26.20 6.20 -30 6.20 -4.80 0 -5 1.60 -0.80 6.20 1.60 1.80 3.60 8.40 4.20 14.40 l1.20 11 16.60 -1.20 c41.60 -2.60 68.40 13.20 78.80 46.40 4 13.20 4.40 17.40 3.40 36 -1.20 21.60 -2.80 27.20 -10.20 34.20 -9.80 9.40 -11.60 10 -36 11.40 -13.40 0.80 -28.20 2 -33.20 2.60 -7.40 0.80 -10 0.20 -14.80 -3.40z"/>
  <path d="M1572.60 443.80 l-8.60 -4.20 0 -12.40 c0 -6.60 0.60 -14.20 1.20 -16.60 1.80 -6.40 17.20 -13.20 32.40 -14.20 17.80 -1.20 18.20 -2.20 17.40 -38.40 -0.40 -16 -1.60 -32.60 -2.60 -37 -1.20 -4.40 -3.20 -18.40 -4.40 -31 -1.40 -12.60 -3.20 -29.60 -4 -37.80 -0.80 -8 -2.60 -15.40 -4 -16.20 -1.20 -0.80 -14.60 -2 -29.60 -2.80 -47.20 -2.40 -54.40 -5.40 -56 -23.40 -0.80 -10 -0.40 -11.40 5.20 -17.40 7 -7.40 4 -7.20 60.80 -6.40 26.60 0.20 44.20 1.40 48.80 3 8.20 2.80 17 10 20.60 16.80 1.40 2.60 3.80 22.20 5.40 44.80 1.60 22.20 3.80 46.20 4.80 53.40 1.20 7.20 2.80 29.60 3.80 50 0.80 20.40 2.60 39.60 4 42.60 2.80 7.40 2.80 25.20 -0.20 31.60 -4.60 9.80 -10.60 12.40 -32.40 13.40 -11.20 0.40 -22.60 2.20 -25.60 3.60 -8.20 4.20 -27.20 3.60 -37 -1.40z"/>
  <path d="M790.60 405 c-7.60 -8.20 -8.60 -10.40 -8.40 -18.60 0 -15.40 3.60 -22.80 11.80 -25 3.80 -1 7.80 -2.60 9 -3.60 1 -1 5.80 -1.80 10.60 -1.80 6.40 0 10.40 1.40 15.60 5.60 6.40 5 6.80 6.20 6.80 17 0 21 -9.80 33.20 -27.80 34.80 -8.80 0.80 -9.60 0.40 -17.60 -8.40z"/>
 </g>
 <g fill="#ffffff">
  <path d="M0 1545 l0 -1545 1859 0 1859 0 0 1545 0 1545 -1859 0 -1859 0 0 -1545z m956.80 1365.40 c1.20 -2 -8.60 -11.40 -10.20 -9.60 -2 2 3 11.20 6.20 11.20 1.60 0 3.40 -0.60 4 -1.60z m-2.80 -25.40 c0 -1.60 -1.40 -3 -3 -3 -1.60 0 -3 1.40 -3 3 0 1.60 1.40 3 3 3 1.60 0 3 -1.40 3 -3z m-756 -208 c9.40 -4.80 33.60 -11.60 49.60 -14 2.60 -0.40 6.80 -2.20 9.60 -4 2.60 -1.80 5.80 -2.60 7 -1.80 1.20 0.60 8.40 -0.40 16 -2.40 10.60 -2.80 15.40 -5.20 21 -11 8.60 -8.80 10 -19 3.60 -26 -3.40 -3.80 -5.20 -4.20 -19 -3.20 -8.20 0.60 -17.80 2.20 -21 3.60 -3.20 1.40 -7.60 2.80 -9.80 3.20 -2.20 0.40 -6.20 1.40 -9 2.60 -2.80 1 -8.60 2.20 -13 2.80 -8.80 1 -19 4.20 -27.40 8.40 -2.80 1.60 -7 2.80 -9.20 2.80 -5.60 0 -18.20 7.60 -24.80 15 -7 7.60 -7.20 15.20 -0.40 22.40 6 6.60 16 7.20 26.80 1.60z m218.60 -59 c6.40 -1.20 15.80 -4.20 21 -7 5.20 -2.60 13.20 -5 17.80 -5.40 7.40 -0.40 9.20 -1.40 14.60 -8.80 8.80 -12.20 9.60 -19.40 3.40 -25.60 -6.20 -6.20 -14.20 -8.40 -20 -5.60 -2.40 1.20 -7.60 2.60 -11.60 3.20 -4 0.80 -8.80 3 -10.80 5.20 -2 2.20 -5.20 4 -7.20 4 -2 0 -4.20 1 -4.80 2 -0.60 1.20 -2.80 2 -4.80 2 -2 0 -8.40 1.40 -14 3.40 -10.60 3.40 -22.20 13.80 -22.20 19.80 0 9 12.20 17.60 22 16 2.80 -0.60 10.20 -2 16.60 -3.20z m-246 -51.80 c22.20 -10.20 37.40 -16 47.40 -18.20 6 -1.40 17.80 -4.80 26 -8 8.20 -3 19 -6.60 24 -7.80 16.40 -4.40 21.40 -5.80 39 -12.20 8 -3 28.20 -12.60 35 -17 3.80 -2.40 9.80 -5 13 -5.80 3.40 -0.80 9.20 -3.60 13.20 -6.20 3.80 -2.40 12.40 -7.40 19 -10.80 6.40 -3.60 14 -7.60 16.80 -9.20 10.60 -5.80 48.40 -23 50.60 -23 1.40 0 4.40 -1.40 6.80 -3 2.40 -1.80 10.60 -6.40 18 -10.40 7.40 -4 20.80 -11.80 29.60 -17.60 8.80 -5.60 18.40 -11.20 21.40 -12.60 5 -2 11.80 -7.20 19.60 -14.60 2 -1.80 4.40 -3.60 5.40 -4 6.60 -2.80 22.40 -14 28.80 -20.80 4.20 -4.20 13.60 -12.40 20.60 -18 15.40 -11.80 41.40 -34.40 63.20 -54.40 8.60 -8 16.60 -14.60 17.60 -14.60 1 0 13 -11 26.80 -24.40 13.60 -13.60 27.80 -27.40 31.60 -30.80 3.80 -3.40 13.40 -12.80 21.40 -21 7.80 -8.20 21.80 -22 31 -30.80 9.20 -8.80 20.20 -20.60 24.60 -25.80 7 -8.60 16.40 -19.60 27.40 -32 2 -2.20 6 -7.60 9 -12 3 -4.60 6.80 -9.80 8.60 -11.80 1.60 -2.20 5.20 -7.60 8 -12.40 4.60 -7.60 17.20 -24.80 25 -33.40 1.60 -2 3 -4 3 -4.60 0 -0.60 1.60 -2.60 3.60 -4.80 6.60 -7 16.60 -19.40 19 -23.60 1.40 -2.20 4.60 -8 7.20 -12.80 2.60 -4.80 6.40 -10.40 8.40 -12.20 2 -2 6.40 -7.80 10 -13 3.60 -5.40 7.60 -10.40 9.20 -11.20 1.40 -0.80 3.40 -5.40 4.80 -10 1.20 -4.60 4 -10 6 -12 2 -2 3.80 -4.20 3.80 -5.20 0 -0.80 2.80 -4.60 6 -8.20 3.40 -3.60 6 -8.40 6 -10.60 0 -2 1.40 -5 3 -6.60 1.60 -1.80 3 -4.80 3 -6.80 0 -2 0.80 -4.40 2 -5 2.40 -1.40 7.40 -12.40 8.60 -19 0.60 -2.80 2 -7.60 3.20 -11 4.20 -11.60 12.20 -39.20 12.20 -41.80 0 -1.40 1.80 -4.20 4 -6.20 2.20 -2 4 -5.60 4 -8 0 -2.40 2.20 -6.80 5 -9.80 2.80 -3 5 -6.80 5 -8.60 0 -1.60 2.80 -8 6.20 -14 8 -14 12.20 -33 12.20 -56.40 0 -18.20 -0.20 -19 -6 -24.80 -9.20 -9 -24.40 -7.40 -24.40 2.60 0 2 -1.40 4.60 -3 6 -1.60 1.40 -3 3.80 -3 5.60 0 1.60 -1.40 4.60 -3 6.40 -2 2.20 -3.80 10.20 -4.80 21.20 -1.80 19.20 -8.20 40.60 -14.40 48.40 -2 2.80 -3.80 5.80 -3.80 6.60 0 1 -2 6 -4.60 11.40 -2.40 5.20 -8 20.20 -12.20 33.40 -4.20 13.20 -9.40 27.40 -11.40 31.60 -2.20 4.40 -3.80 8.80 -3.80 10 0 6.40 -21 49.40 -26 53.40 -0.60 0.60 -3.40 4.60 -6 9 -2.60 4.40 -7 10.20 -9.40 13 -2.60 2.80 -4.60 6.20 -4.60 7.60 0 1.40 -2.60 5 -5.80 8.20 -3.20 3.20 -8.20 9.20 -11 13.40 -2.80 4.40 -7.80 11.40 -11 15.80 -3.40 4.40 -6.80 9.40 -7.40 11 -0.80 1.60 -4.40 6 -8.20 9.40 -3.60 3.60 -6.60 7.40 -6.60 8.60 0 1 -0.80 2 -1.80 2 -1 0 -4.60 4.80 -8 10.60 -3.60 5.60 -10.80 16.80 -16.40 24.40 -5.40 7.80 -11.80 17 -14 20.60 -2.40 3.40 -4.80 6.40 -5.60 6.40 -0.80 0 -6 6 -11.60 13.60 -10.60 14 -38.20 44.40 -40.60 44.40 -2.20 0 -34 31.80 -34 34 0 1 -1.80 2 -4 2 -2.20 0 -4 0.80 -4 1.60 0 2 -32.80 35 -50 50.40 -6.80 6 -14.40 12.80 -16.80 15 -2.40 2.20 -13.40 11.60 -24.40 21 -10.80 9.40 -23.40 20.40 -27.80 24.40 -4.40 4.20 -11 9 -14.40 11 -3.60 2 -6.60 4.40 -6.80 5.60 0 2.40 -23.20 22 -34.80 29.60 -4.40 3 -11.60 7.80 -16 10.80 -4.40 3 -10.60 7 -14 8.60 -3.20 1.60 -8.60 4.80 -12 7.20 -3.20 2.40 -13.20 8 -22 12.80 -8.80 4.60 -21.80 12.20 -29 16.80 -13.80 8.80 -28.80 15.20 -39.40 16.60 -3.40 0.60 -8.80 3.60 -11.80 6.80 -3 3.20 -7.60 5.80 -10 5.80 -2.40 0 -5.40 1.40 -6.80 3 -1.40 1.60 -4.20 3 -6.20 3 -2 0 -4 0.80 -4.80 1.80 -1.20 2.20 -12.60 8.20 -15.20 8.20 -0.80 0 -3.80 -4.20 -6.40 -9.40 -5.40 -11.20 -12.60 -15.60 -20.40 -12.60 -7.60 2.80 -10.80 12.40 -9.60 27.60 1 11.80 0.80 12.60 -4.60 17 -7.20 5.80 -16 9 -25.20 9.20 -4 0.20 -8 1.20 -8.60 2.20 -0.60 1.20 -3.60 2 -6.60 2 -3 0 -7.20 1.40 -9.20 3 -2.20 1.60 -5.80 3 -8.20 3 -2.40 0 -5 0.80 -6.20 1.80 -1 0.80 -9.80 4 -19.80 7.20 -9.80 3 -19.40 6 -21 6.60 -1.60 0.60 -5.20 1.40 -8 1.80 -8.20 1.20 -24.60 7 -31 11 -3.20 2 -8.20 3.60 -10.80 3.60 -7.40 0 -26.20 20 -26.20 28 0 3.20 1 6 2 6 1.20 0 2 1.40 2 3 0 2.60 12.20 10.60 16.60 11 0.80 0 5.20 -1.80 10 -3.80z m210.60 -15.40 c7.40 -7.80 6.40 -17 -2.20 -24.60 -13 -11.40 -23.20 -6.80 -24.60 10.80 -1.20 13.80 2.60 18.80 14.40 18.80 5.80 0.20 9 -1 12.40 -5z m242 -7.80 c6.20 -1.60 12.20 -3.80 13.60 -4.80 2.40 -1.80 11.40 -3.80 25.20 -5.60 5 -0.60 10 -1.80 11 -2.60 1.20 -1 5.40 -2.20 9.40 -3 9.80 -1.80 14.20 -9.60 11.40 -20 -2.40 -8.60 -7.80 -12.20 -21.20 -13.80 -8.40 -1 -13.60 -0.20 -27.40 4.40 l-16.80 5.80 -6.20 -3.80 -6.20 -4 0 5.80 c0 7.20 -8 11.40 -17 8.80 -5 -1.20 -6.80 -0.80 -10.60 3.20 -2.40 2.60 -5.40 4.20 -6.40 3.60 -2.20 -1.40 -6 7 -6 12.80 0 4 4.80 9.80 11 13.60 5.60 3.40 22.60 3.20 36.20 -0.40z m1249.80 -3.20 c6.60 -1.40 13.40 -3.60 15.20 -5 1.60 -1.60 4.20 -2.80 5.40 -2.80 1.20 0 4.80 -2.20 8.20 -5 l6 -5.20 -3.40 -6.80 c-2.80 -5.60 -5.40 -7.40 -13.80 -10 -13 -3.80 -14.40 -3.80 -19.40 0.80 -3.20 2.80 -9 4.20 -25.20 5.40 -11.60 1 -25.60 1.80 -31.40 1.80 -13.80 0 -22.60 6.20 -22.60 15.80 0 12.40 7.40 14.80 43 14 14.40 -0.40 31.40 -1.80 38 -3z m230.80 -16 c7.80 -0.20 14.80 -1 15.40 -2 0.60 -1 3.20 -1.80 5.80 -1.80 6 0 19 -6 19 -8.80 0 -1 1.40 -3.40 3.20 -5.40 2.20 -2.40 2.80 -5 1.80 -7.20 -2.40 -5.60 -1.20 -9.20 5.20 -15 3.20 -3 5.80 -7 5.80 -9 0 -2 3.60 -8 8 -13.40 4.40 -5.20 8 -10.80 8 -12.40 0 -1.40 1.80 -3.60 4 -4.80 3.60 -2 3.80 -1.40 3.80 5.40 -0.40 10.60 2.20 24.20 5 26.20 1.20 1 6.60 3.40 12.20 5.20 l9.80 3.20 6.20 -6 6 -6 -0.20 -25.60 c0 -14 -0.80 -31.40 -1.40 -38.80 -1 -10.20 -0.80 -13.60 1.20 -13.60 1.40 0 10.80 7.80 20.80 17.60 10.20 9.60 20.60 19 23.40 21 2.80 2 5.20 4.80 5.20 6.40 0 1.60 0.80 3 1.60 3 1.60 0 15.60 10 28.40 20 2.80 2.20 9.80 7.80 15.60 12.20 8 6.20 10.40 9 9.20 11.40 -3 7 -2 15.20 2.40 17.40 2.40 1.20 5.80 3.40 7.60 4.80 2.60 2.20 4 2.20 5.60 0.60 1.60 -1.60 14.60 -2.40 41.80 -2.40 42.80 0 42.60 0 44.20 -11.60 0.80 -5.60 -0.20 -7.60 -7 -13.60 -7.20 -6.60 -8.60 -7.20 -16.20 -5.80 -12.60 2.40 -49.20 3 -49.20 1 0 -1 1 -2.40 2 -3 4 -2.40 2 -11 -4 -16.80 -3.40 -3 -11.20 -7.60 -17.40 -10 -10.40 -4 -19.40 -9.60 -27 -16.60 -1.40 -1.40 -6.60 -5.80 -11.60 -9.80 -5 -4 -11.80 -9.80 -15.20 -13 -3.40 -3.20 -10.20 -8.60 -14.80 -11.80 -4.80 -3.40 -13.40 -10.80 -18.80 -16.60 -10 -10.40 -10.40 -10.60 -18.60 -9.40 l-8.60 1.20 -0.40 -8.60 c-0.20 -4.80 -0.60 -23 -0.60 -40.60 -0.20 -17.60 -1 -46.60 -1.60 -64.40 -0.80 -18.20 -0.60 -33 0.40 -33.60 1 -0.60 3.80 2.20 6.20 6 2.40 3.80 5.60 7 7.20 7 1.60 0 8.80 5 15.80 11 14.80 12.40 27.60 21 31.60 21 2.80 0 9.60 5.40 22.40 17.80 3.40 3 10.20 7.60 15.60 10.20 5.20 2.40 10.40 6.20 11.60 8.20 1 2 3 3.80 4 3.80 1.20 0 5.60 2.60 9.60 5.80 4 3 11 7.60 15.80 10 4.80 2.40 12.40 8.40 17 13.40 4.40 4.80 9.20 8.80 10.40 8.80 1.20 0 5.80 1.80 10 4.20 4.40 2.20 11 4 14.60 4.20 3.40 0 6.40 0.60 6.60 1.40 0 0.60 0.20 16.20 0.40 34.40 0.20 25.40 -0.40 34 -2.40 36.60 -2.20 2.60 -2.20 4.80 0.60 13 1.80 5.60 3.20 11.60 3.20 13.60 0 4.20 10.20 10.60 16.60 10.60 2.40 0 8.60 -3.20 14 -7 9 -6.80 11.60 -11.40 7.40 -14 -2 -1.20 -1.80 -4.60 1 -15.80 1 -3.60 0.80 -6.20 -1 -7.20 -1.80 -1.20 -1.80 -3.80 0 -12.40 2 -8.40 2 -12 0.20 -15.40 -3 -5.40 -1.40 -8.20 5.20 -8.20 7.20 0 17.80 -5.40 20 -10.60 4.80 -10 53.40 -59.20 69.60 -70.40 5.60 -3.60 15.20 -13 21.40 -20.80 6.40 -7.80 15 -16.40 19.40 -19 4.40 -2.80 9.20 -7 11 -9.40 1.80 -2.60 3.60 -4 4.40 -3.40 1.80 1.80 2.60 69 1 103.20 -0.60 16.60 -0.40 30.60 0.40 31 1 0.20 0.80 4.40 -0.40 9.20 -2.40 10.60 0.20 27.40 6 38 6.40 12 5.20 15.20 -6.60 19.40 -11.60 4.20 -15.40 9.20 -14 18.60 1.20 9.20 6.80 10.40 46.40 9.60 41 -1 47.20 -2.60 49.20 -12.60 1.40 -7.80 0.20 -14.20 -4 -19.80 -2.20 -3 -5 -4 -12.60 -3.80 -5.20 0 -12 0.60 -14.80 1.40 l-5 1.20 1.60 -13.20 c0.80 -7.20 2 -13.60 2.60 -14.20 0.60 -0.60 -0.20 -2.40 -1.80 -4.20 -1.40 -1.80 -3.40 -6.80 -4 -11.20 -2.40 -14.20 -3.60 -29 -2.20 -29 1.80 0 21.60 14.80 24.80 18.60 1.40 2 4 3.40 5.40 3.40 1.40 0 7.40 3.60 13.20 8 5.80 4.40 11.80 8 13.20 8 1.20 0 2.40 0.80 2.40 1.60 0 2.60 41.40 36.80 49.40 41 3.80 2 11.20 4 16.60 4.60 8.20 0.80 10.20 0.20 12.80 -3.40 1.60 -2.40 2.60 -5.20 2 -6.60 -0.60 -1.40 2.20 -2 9.20 -1.60 8 0.60 11.80 -0.20 19 -4.40 7.60 -4.60 9.40 -6.80 11.20 -14.40 1.20 -4.80 3.20 -9.40 4.20 -10 1 -0.60 0.60 -2.60 -1 -4.40 -3 -3.20 -4.60 -13.80 -6.20 -39.40 -0.60 -6.60 -1.60 -18.80 -2.80 -27 -2.20 -18.80 -1 -71.20 2 -78.60 1.60 -4 1.40 -6.20 -0.20 -8.20 -1.20 -1.60 -2.40 -10.20 -2.60 -19.40 -0.20 -22.20 -1.40 -25 -11.40 -26.80 -4.60 -0.80 -8.60 -2.20 -9.40 -3.20 -0.60 -1 -2.60 -1 -5 0.40 -3 1.40 -4.80 1.40 -7 -0.40 -2 -1.60 -3.60 -1.60 -5.20 -0.20 -1.40 1 -7 1.60 -12.60 1 -16.20 -1.40 -97.60 0 -121 2 l-5 0.40 -0.40 -25 c-0.60 -36.80 -1 -109 -0.40 -111.20 0.20 -1 -0.20 -4.20 -1 -7.20 -1 -3 -0.60 -7 0.80 -9.60 3.20 -6 4 -25.40 1.60 -35.40 -1.40 -5.60 -4.20 -10 -8.40 -13.40 -6 -4.40 -8.20 -4.80 -30.40 -5 -58.20 -0.20 -118.60 -2 -127.80 -4 -7 -1.40 -12.20 -1.40 -17.60 0.20 -4 1.20 -7.80 1.80 -8.40 1.20 -0.60 -0.40 0.40 -5.80 1.80 -11.80 1.60 -5.80 2.40 -11.40 2 -12.20 -0.60 -0.80 -0.20 -6.80 1 -13 1.60 -9.40 5 -67.40 4.60 -78.60 0 -1.60 -1 -6.80 -2.20 -11.60 -2.60 -9.60 -1.40 -16.20 4.40 -25.80 2 -3.60 3 -6.60 1.80 -6.60 -1 0 -1.60 -2 -1 -4.40 0.40 -3 -1.40 -6.80 -5.20 -11 l-6 -6.40 -19.60 1 c-10.80 0.60 -32.20 1 -47.60 0.80 -64.20 -0.80 -89.20 -0.20 -111 2.80 -5 0.80 -15.40 1.60 -23.20 2 -8.40 0.40 -16 2 -19 3.80 -2.60 1.80 -8.60 3.80 -13.20 4.60 -4.80 0.60 -10.80 3.40 -13.60 5.80 -4.80 4.60 -4.80 5.40 -4.60 32.40 0.20 28.40 -2.40 62.20 -7.20 88.60 -2.40 13.20 -3 19.40 -3 28.60 0 3.60 1.60 17.60 3 24.60 1 5.80 0.60 6.40 -7.60 9.40 -16 5.80 -26.20 7.80 -52.40 9.60 -29.80 2 -57.80 4.80 -65.20 6.60 -2.80 0.80 -12.60 1.60 -22 2 -16.40 0.60 -17 0.60 -22.20 -5 -6.20 -6.60 -13.80 -7.60 -24.40 -3 l-6.60 2.60 0.40 27.20 c0.20 14.80 0.80 27.80 1.20 28.60 0.60 1 0.40 11.80 -0.60 23.80 -4.80 58.20 -5.20 117.20 -1 150 3.20 25 3.20 62.80 0 97 -1.40 14.20 -1.40 14 0.20 46.80 0.80 16.80 0.40 31.60 -0.80 37.60 -2.60 12 0.40 21 9.40 27.40 8 5.60 14.80 5.40 22 -0.80 3.40 -2.80 7 -5 8.20 -5 1.20 0 2.20 -2 2.20 -4.40 0 -2.60 0 -6.40 0 -8.60 0 -2.20 -0.80 -18.80 -2 -37 -1.20 -18.20 -1.60 -47 -0.80 -64 1.60 -45 1.40 -73.20 -1 -88 -1.20 -7.20 -2.60 -21.60 -3.20 -32 -0.80 -10.40 -1.80 -19.60 -2.20 -20.40 -0.60 -1 -0.40 -2.80 0.40 -4 1 -1.40 1.60 -8.40 1.60 -15.60 l0.20 -13 10 -1 c13.60 -1.40 39.80 -19.80 81 -57 8.60 -7.60 16.80 -15 18.20 -16.20 1.60 -1.20 4.40 -4 6.20 -6 5.80 -6.40 10.20 -9.80 22.20 -17.60 6.20 -4.20 11.40 -8.40 11.40 -9.40 0 -1 1.60 -1.80 3.80 -1.80 5.20 0 5.80 5.60 4 32.20 -2.20 29 -3.20 33.40 -8.40 36.20 -6.60 3.40 -19.40 14 -19.40 16 0 0.80 -1.60 3.20 -3.40 5.20 -2 2 -8.40 9.20 -14.40 16 -6 6.80 -12 12.40 -13.40 12.40 -1.60 0 -2.80 0.60 -2.80 1.60 0 1.40 -15.60 17.80 -31.20 32.80 -4.40 4 -11.40 11.60 -15.80 17 -4.40 5.20 -13.40 15 -20 21.60 -13.60 13.80 -16.20 22.40 -8.40 28 10.20 7 20.20 2.60 39.40 -17.80 42.60 -45 84 -85.20 87.80 -85.20 3.80 0 4 1.40 4.20 23.60 0.20 12.80 0.60 32.60 0.80 44 l0.60 20.40 -6.40 5.60 c-3.60 3 -8.60 7.20 -11.20 9.20 -11.60 9.20 -31.20 26.60 -34.40 30.60 -4.60 5.60 -17.40 24.80 -17.40 25.80 0 0.60 -2.60 3.80 -5.80 7.40 -3.20 3.40 -9.40 11 -13.60 16.80 -10 13.40 -19 23 -34.20 36.20 -11.80 10.40 -12 11 -10 17 4.20 12.60 8.60 14.80 20.60 10.20 7.60 -2.80 29.40 -23.60 42.60 -40.60 7.40 -9.40 17.60 -21.20 22.60 -26.40 5 -5.20 10.40 -12.60 12 -16.20 1.40 -3.60 4.60 -8.80 7.20 -11.60 2.60 -2.80 6.80 -7.80 9.60 -11.40 2.80 -3.40 8.20 -8 11.80 -10.20 6 -3.60 7 -3.60 8 -1 1.80 4.20 1.40 19.20 -0.40 22 -0.80 1.40 -0.80 9.60 0 18 0.80 8.60 1 19.80 0.40 25 -1 8 -2.20 10.20 -7.80 13.60 -3.80 2.40 -7.40 6.20 -8.20 8.60 -1.40 4.80 -8.60 14.20 -22.80 29.80 -5 5.60 -8.80 10.80 -8.60 11.80 0.40 1 -1.40 5.40 -3.60 9.80 -4.20 7.80 -4.20 10.80 -0.60 23.60 1.20 4.20 0.80 4.40 -11 4.40 -6.80 0 -14.20 1 -16.40 2 -5.40 3 -17 4.80 -28.20 4.20 -5 -0.20 -13 1.20 -17.40 3 -7 2.80 -8.20 4.20 -8.20 9 0 8.20 8.40 15.80 17.60 15.80 4 0 8.80 0.80 10.20 1.80 1.80 1.20 4.40 1.20 6.40 0 1.80 -1 9.80 -1.80 17.60 -2z m-1274.60 -46.60 c9 -1.60 19.60 -4.40 23.80 -6 4.20 -1.80 9.20 -3.20 11.20 -3.20 2 0 4.40 -1.20 5.20 -2.60 1.80 -3 16.80 -9.40 22.20 -9.40 5.60 -0.20 11.80 -6.80 14.20 -15 1.80 -7 1.60 -8 -3.80 -13 -8.20 -7.60 -24.20 -9.60 -32.20 -3.80 -3.20 2.20 -7.40 4.40 -9.20 4.80 -5.20 1 -24.80 8.60 -30.80 12 -2.80 1.60 -8.80 3.40 -13.40 4.20 -9 1.40 -22.40 12.40 -22.40 18.20 0.20 3 14.80 16.40 18 16.60 0.60 0 8.40 -1.20 17.20 -2.80z m2154.40 -15.20 c8.20 2.20 12.40 -0.40 16.40 -10.20 2 -4.80 2 -7.40 -0.80 -14.40 -1.80 -4.60 -3.40 -11.20 -3.40 -14.40 l-0.20 -6 -1.40 6 c-1.20 5.80 -1.80 6 -15.20 7.60 -7.80 0.80 -24 1.80 -36 2.20 -24.40 0.60 -33.80 3.80 -37 12.40 -4.40 11.60 8 19.80 26.80 18.20 6.80 -0.60 16.20 -0.40 21.20 0.40 6 1 11.40 0.60 15.80 -1.20 5 -2 8.60 -2.20 13.80 -0.60z m190 -14.40 c5.40 -8.80 3.60 -20.60 -4 -26.20 -5 -3.80 -6.60 -3.80 -27.40 -1.80 -25 2.60 -32.20 5.80 -32.20 14.40 0 6.40 4.40 10.60 14 13.80 9.20 2.80 26.80 5.60 37.40 6 7.40 0.20 8.80 -0.60 12.20 -6.20z m-1252.40 -3 c0.80 -3.20 3.20 -8.20 5.40 -11.20 3 -4.40 3.60 -7.40 2.40 -13 -0.80 -4 -1.60 -10.60 -1.80 -14.40 -1 -13 -3.60 -22.20 -7.20 -24 -5.40 -3 -20.40 2.20 -23.40 8 -1.40 3 -2 10.60 -1.40 20.20 0.60 11.60 0 16.20 -2 18.40 -2.60 2.40 -1.60 4 6.20 12.20 11.20 11.20 19.60 12.60 21.80 3.80z m610.40 -21.40 c3 -1.60 7.80 -5.40 10.40 -8.80 2.80 -3.20 7.40 -7.40 10.60 -9.40 3 -1.80 5.40 -4.40 5.40 -5.60 0 -3.20 25.80 -27.40 29.20 -27.40 1.60 0 5.20 -3.60 8 -8 4.20 -6.40 5 -9.40 4.20 -15.40 -1.80 -10.60 -3.80 -11.80 -15.20 -8.80 -7.80 2 -13 5.40 -25.60 17.40 -8.60 8.20 -16.40 15.80 -17.60 17 -1 1.20 -8.40 8.60 -16 16.60 -21 21.20 -20.40 20 -14.20 28.20 6 7.80 11.80 8.80 20.80 4.20z m-1467 -14 c8.20 -1.60 17 -3.80 19.20 -5 2.40 -1.20 6 -3 8.20 -4.20 2.20 -1 5.60 -2 7.40 -2 2 0 4.80 -1.80 6.20 -4 1.40 -2.20 3.60 -4 5.20 -4 1.40 0 4.20 -1.80 6.20 -4 2 -2.20 4.80 -4 6.40 -4 1.40 0 4.20 -1.60 6.20 -3.40 1.80 -2 5.80 -5.40 8.80 -7.80 7.20 -5.60 9 -13 4.20 -17 -8 -6.80 -13.80 -7.80 -21.60 -3.80 -4 2 -10.80 4.20 -15.20 5 -4.20 0.80 -8.20 2.20 -9 3.20 -0.60 1 -2.80 1.80 -4.80 1.80 -3.40 0 -17.40 5.60 -24 9.80 -1.60 1 -9.80 3.80 -18 6.20 -11 3.20 -16.40 6.20 -20.40 10.60 -6.80 7.60 -7 11.40 -1 16.80 10.40 9.40 13.80 10 36 5.80z m213.60 -77.80 c5.40 -7.40 6.40 -18.20 2.40 -23.20 -5 -5.80 -19.20 -8.20 -29.60 -4.60 -20 6.60 -21.80 8.20 -19.60 18.60 1.60 8.60 8.80 12.40 25.40 13.80 16.60 1.40 17.20 1.20 21.40 -4.60z m-969.40 -54.40 c8 -8.60 9.40 -24.60 3.40 -36.60 -2 -4 -4.20 -11 -4.80 -15.40 -1.60 -12.20 -7 -22.80 -17.20 -34.20 -5.40 -5.80 -7.60 -7 -12 -5.80 -7 1.80 -13.60 8.20 -14.80 14.60 -0.60 3 0.80 9.40 3.60 15.20 4.40 10.20 7 19.60 11.20 41.80 3 16.40 9.80 23.60 23.40 25.20 1.40 0 4.60 -2 7.20 -4.80z m1611.60 -89.20 c4.80 -9.60 5 -39 0.20 -44.20 -4 -4.60 -19 -5 -22.60 -0.60 -1.40 1.60 -3.20 9.60 -4 17.60 -0.80 7.80 -2.20 16 -3 17.80 -3.20 7.80 12.80 21 22 17.60 2.20 -0.80 5.60 -4.40 7.40 -8.20z m-1678.40 -133.80 c6 -3.20 12.60 -19.80 10.20 -26 -1 -2.80 -2.60 -8.20 -3.20 -12 -0.80 -3.80 -4 -12.60 -7.20 -19.60 -3.20 -7 -5.80 -13.40 -5.80 -14.40 0 -3.60 -5.80 -12.20 -10.80 -16.20 -4.60 -3.60 -6.20 -3.80 -12 -1.80 -10.60 3.40 -14 8.40 -12.40 18.40 1.40 8.80 6.40 26 9.40 32 1 1.80 2.40 7.20 3 12 1.40 9.40 6.80 21.40 11.80 26.40 3.80 3.60 11.40 4.20 17 1.20z m1682.60 -68.20 c4.60 -2.40 8.60 -4.60 9 -4.80 0.40 -0.20 1 -12 1.60 -25.80 l0.80 -25.40 -5.80 -6 c-6.60 -6.60 -16.40 -7.80 -23.60 -2.80 -3.40 2.40 -4.40 5.80 -5.40 21.40 -2.80 35.40 -2.20 38.80 6.20 44 7.20 4.40 7.20 4.40 17.20 -0.60z m-1720 -108 c8.20 -8.80 9 -13.60 4.60 -25.20 -1.60 -4.20 -5.80 -17 -9.20 -28.60 -13.20 -44.40 -17 -54.80 -23 -61.40 -7.20 -8 -13.20 -9.40 -22 -5.60 -12 4.80 -13.80 15.60 -5.60 30.20 4.60 8.20 9.60 24.20 14.60 47.80 1.40 6.60 3.80 14 5.20 16.40 1.60 2.40 2.80 6.60 2.80 9.20 0 6.20 6 24 8.80 26 4.80 3.40 16.20 -0.80 23.80 -8.80z m1722.20 -78 c3.80 -1.80 5.40 -4.80 7.40 -14.60 5.60 -26 1 -66.20 -8.20 -71.20 -5.60 -3 -13 -2.40 -18 1.60 -4 3.40 -4.40 5.20 -5 40.60 -0.20 20.60 0 38.20 0.80 39.20 4 6.20 14.60 8.20 23 4.40z m7.40 -199.60 c5.20 -0.20 6.40 -5.20 8.20 -35.20 2.40 -41.20 2.40 -43 -1.20 -55 -5 -17.40 -7 -20 -14.40 -20 -13.80 0 -23.20 7.60 -20.80 17 0.40 1.20 0.80 19.20 1 40 0.20 21 1 39.80 2 42 2.60 6.60 11.40 13 17 12.20 2.80 -0.40 6.40 -1 8.20 -1z m-929.20 -171.20 c16.60 -1.20 20.40 -1.80 22.20 -3.60 0.80 -0.80 3 -1.40 5 -1.40 3.80 0 17.40 -6.40 25.80 -12.20 2.80 -1.80 6 -3.40 7 -3.20 2.60 0.20 11.60 -13.40 15.60 -24.20 4.40 -11 7.60 -41.40 6.60 -60.60 -0.60 -13 -1.80 -17.20 -8.20 -29 -4.20 -7.60 -15.60 -22.80 -25.40 -33.80 -9.80 -11.20 -20 -24.80 -22.80 -31 -10.20 -22 -11.80 -24.60 -16.20 -26.60 -3.60 -1.60 -5.40 -1.20 -8.60 1.60 -3.40 3.20 -4 5.40 -3.20 13 0.60 5 2.40 13 4 17.80 1.80 4.80 3.20 9 3.20 9.40 0 1.80 -4.80 0.60 -13.40 -3.40 -8.60 -4 -10.20 -4 -20.20 -1.60 -6 1.40 -15 5.20 -20 8.40 -5.20 3.40 -17.60 9.20 -27.40 13.20 -10 4 -23.60 10.80 -30.20 15.20 -10.60 6.80 -13.40 10.20 -21 24 l-8.60 16 0.40 22.80 c0.20 12.60 1 24.80 1.60 27 0.60 2.40 6 11.40 11.80 20.20 10.60 15.80 28.20 31 36.20 31 1.60 0 5.60 1.40 8.80 3 3.20 1.80 8.60 3.40 11.60 3.80 3.20 0.40 6.80 1.20 8.20 2 3.20 2 27.40 4.60 36.20 3.80 3.80 -0.20 13.40 -1 21 -1.60z m-422.20 -25.80 c2.40 -2.20 8 -9.40 12.80 -15.80 4.60 -6.20 9.40 -11.40 10.40 -11.40 1 0 2.20 -1.60 2.80 -3.40 1.40 -4.40 4.40 -7.60 37 -38.60 14.60 -13.80 34.80 -33 45 -43 26.80 -26 60.60 -57.20 65.80 -60.80 2.40 -1.60 6.20 -5.40 8.40 -8.20 2.20 -2.80 11.60 -12.80 21 -22.20 9.40 -9.60 19.20 -19.80 21.80 -22.60 2.60 -3 10.20 -9.40 16.60 -14.40 18.20 -13.80 64.20 -58.60 87.80 -85.60 5.80 -6.60 19.60 -20 30.60 -30 11.20 -9.80 20.60 -18.80 20.80 -19.60 0.40 -0.80 3.20 -1.60 6 -1.60 3 0 6.40 -0.80 7.80 -1.60 3.40 -2.20 6.60 -11.60 6.60 -20 0 -11.40 -3.80 -16.60 -13.80 -19.60 -7.40 -2.20 -10 -2 -16.40 0.60 -4.20 1.60 -8.20 4.40 -8.80 6.20 -0.40 2 -4.40 7.20 -8.40 11.80 -4.20 4.40 -9 9.80 -10.80 12 -1.80 2 -10.80 10.80 -20 19.60 -20.80 20 -40.80 41.40 -43.80 47 -1.20 2.20 -3.40 4 -5 4 -1.60 0 -3.80 1.80 -5 4 -1.20 2.20 -3.40 4 -5 4 -1.60 0 -3 1 -3 2 0 2.40 -31.80 34 -34 34 -1.40 0 -25.40 22.80 -59.40 56 -9 8.80 -17 16 -18 16 -0.80 0 -3.80 3.40 -6.40 7.60 -2.60 4 -10.60 12.40 -17.60 18.40 -20.20 17.20 -48.40 42.80 -69 62.60 -6.60 6.20 -12.20 11.40 -12.60 11.40 -0.40 0 -6 5.20 -12.60 11.60 -18.80 18.20 -30.60 28.40 -32.60 28.40 -1 0 -1.60 0.60 -1.40 1.60 0.40 2 -2.60 8.40 -4.20 8.40 -0.60 0 -8.20 6.60 -16.60 14.60 -16.60 15.40 -18.60 20.40 -13.40 32 4.80 10.60 28 13.60 36.60 4.60z m2390.20 -151.80 c8.80 -0.20 29.60 0.20 46.40 0.80 16.60 0.40 31 0.20 31.60 -0.60 2.40 -2.20 4.60 -17 3.40 -22.60 -0.60 -3.20 -3.40 -6.40 -7 -8.40 -5.20 -2.60 -7.80 -2.80 -16.80 -0.60 -6.60 1.40 -11.80 1.60 -13.20 0.40 -1.40 -1 -8.20 -1.40 -15.40 -1.20 -7.20 0.40 -15.40 -0.20 -18.20 -1.40 -5 -2 -8.40 -1.60 -39.80 3.40 -3.80 0.60 -8.40 1.60 -10 2.20 -1.60 0.60 -5 1 -7.40 0.80 -5.80 -0.60 -14.60 8.20 -14.60 14.40 0 4.60 6.40 12 12 13.80 1.60 0.60 9.80 0.60 18 0 8.20 -0.40 22.20 -1 31 -1z m265.40 0.20 c0.40 -1.20 5.20 -2.40 10.60 -2.80 5.40 -0.20 10.20 -1.40 10.60 -2.60 0.40 -1.20 1.80 -3.40 3.20 -4.80 1.20 -1.20 2.60 -5.80 3 -9.80 0.40 -6.20 -0.60 -8.40 -5.20 -12.60 -3 -2.60 -7.80 -5 -10.60 -5 -2.80 0 -7.20 -1.40 -9.60 -3.20 -2.80 -2 -5.40 -2.40 -7 -1.40 -2.60 2 -25 1.60 -47.20 -0.80 -14 -1.60 -15 -1.40 -20.20 3.40 -9.20 8.40 -10.60 13 -6.80 21.20 3.20 6.60 4 7 10.60 6.40 4 -0.60 10.80 -0.20 15.20 1 4.40 1 11.60 2 16 2.40 24.40 2.20 25.80 2.40 28.80 6.60 3.60 4.80 7.40 5.60 8.60 2z m135.60 -2 c4.80 -0.60 5 -1 4.20 -13.60 -0.60 -10.80 -1.40 -13.80 -6.20 -18.60 -5 -5.20 -6 -5.40 -14.20 -3.60 -4.80 1 -16.60 1.40 -26 1 -16 -0.60 -17.80 -0.40 -23 4.20 -5.20 4.60 -5.40 5 -3 12.80 1.80 6.20 4 8.80 9.40 11.40 3.80 1.80 7.60 2.80 8.20 2 0.60 -0.60 2.20 -0.40 3.60 0.80 1.20 1 9.60 2.40 18.60 3.20 9.20 0.80 17 2.20 17.60 3.20 0.60 1 2.20 1 3.40 -0.20 1.40 -1 4.60 -2.20 7.40 -2.60z m-657.20 -7.40 c5 -8.80 4.60 -14.80 -1.40 -23 -6.40 -8.20 -11.80 -9.40 -38.40 -9.20 -56.60 0.40 -60.60 0.80 -67 7 -3.40 3.20 -6 7.40 -6 9.60 0 5 3.60 11.40 6.60 11.40 1.40 0 4.80 1.20 7.60 2.80 4 2 12 2.60 32 2 37.20 -1.20 38.60 -1 41 2 1.80 2.60 14 5 19.80 4.20 1 -0.20 3.60 -3.20 5.80 -6.80z m-253.40 -12.60 c3.80 -3.60 4.60 -6.40 4.60 -16 l0 -11.60 -8.40 -4.20 c-8.40 -4.40 -11.80 -4.60 -36.60 -3.20 -6.60 0.40 -19.80 -0.20 -29.20 -1 -14.60 -1.60 -18.60 -1.20 -25.40 1.60 -10.40 4.60 -15.20 12.20 -11.80 18.80 5 9.60 11.80 12.60 30.80 13 26 0.80 52.60 3.20 57.40 5 7.20 3 13.80 2.20 18.60 -2.40z m-513.80 -21.60 c32.80 0.80 35.40 0.60 51.20 -3.60 19.40 -5.20 24.20 -9.20 22.40 -19.20 -0.80 -4 -3.60 -8.80 -6.60 -11.20 -4.80 -3.80 -7 -4 -36.40 -3 -32.80 1.20 -81 4.60 -86.40 6.20 -3.80 1 -7.80 9.20 -7.80 15.80 0 5.40 6.60 11 13 11 2.40 0 5 0.80 6.20 1.80 1.80 2 22.20 3.80 25.40 2.60 0.80 -0.40 9.40 -0.60 19 -0.40z m216.20 -0.40 c8.20 0.40 18.40 0.80 22.60 1.20 10 0.80 14 -3.60 14.40 -16.20 0.20 -9.40 0 -9.60 -8.80 -14 -10.20 -5 -35.60 -6.20 -48 -2.40 -3.80 1.20 -13 2.40 -20.20 2.60 -22.60 0.60 -30.20 10.20 -17.80 22.20 7 6.80 18.40 9.20 33 7.40 5.60 -0.80 16.80 -1 24.80 -0.80z m1153.40 -40.20 c6.80 0.80 11.80 0.40 13.60 -1.20 1.80 -1.60 3.20 -1.60 4 -0.40 0.80 1.20 3 1.40 5.80 0.40 5.80 -2.20 35.20 -2.20 36.40 0 0.60 0.80 4.40 0.40 8.60 -1 4 -1.40 8.40 -2.20 9.40 -1.80 3.40 1.20 7 -6.80 7.40 -16.80 0.20 -8.60 -0.40 -9.80 -8 -16.80 -10.20 -9 -16.80 -10.20 -52.40 -9.60 -14.80 0.20 -29.60 0.40 -33 0.40 -3.20 0 -13.60 0.80 -23 1.60 -12.80 1.40 -17.40 1.20 -19 -0.80 -2 -2.40 -14.80 -3.60 -40.60 -3.40 -10.80 0.20 -15.40 -0.60 -17.80 -3 -2.40 -2.40 -3.60 -2.60 -4.60 -1 -1.80 3 -46.80 1.40 -50.60 -1.80 -1.40 -1 -7.80 -2.60 -14.20 -3.20 -6.40 -0.60 -13.20 -1.80 -15 -2.80 -1.80 -1 -9 -2.60 -15.80 -3.40 -6.80 -0.60 -13 -2.20 -13.60 -3.20 -0.60 -1 -2.80 -1.20 -4.80 -0.60 -2.20 0.60 -5.80 0 -8.40 -1.60 -7 -4.60 -29.40 -11.80 -31.60 -10.40 -1 0.60 -2 0.20 -2 -0.80 0 -1.20 -1.40 -2.20 -3 -2.20 -4.20 0 -31 -14.20 -31 -16.40 0 -1 -1.60 -2.40 -3.40 -3 -4.20 -1.60 -19.20 -12.80 -20.20 -15.20 -0.40 -0.80 -3.80 -6 -7.60 -11.40 -3.80 -5.40 -6.80 -11.20 -6.80 -12.80 0 -1.60 -0.80 -3.60 -2 -4.20 -1 -0.60 -2 -3 -2 -5.20 0 -2.20 -1.40 -6.80 -3.20 -10.20 -1.80 -3.40 -3.60 -9 -4.20 -12.40 -0.40 -3.40 -3 -12 -6 -19.20 -6 -15.60 -12.60 -36 -12.60 -39.60 0 -1.60 -1.20 -5.60 -2.80 -9 -1.40 -3.60 -5 -14.40 -8 -24.40 -8.60 -28.20 -11.60 -37.60 -13.40 -42 -1 -2.20 -3.40 -11.60 -5.80 -21 -4 -16.80 -6.80 -25.20 -14.20 -41.20 -2 -4.60 -3.80 -9.80 -3.80 -11.60 0 -1.80 -3 -9.40 -6.80 -16.80 -3.60 -7.40 -7.80 -16.80 -9.20 -21 -1.40 -4.40 -5.60 -13.40 -9.40 -20 -3.80 -6.80 -8 -15 -9.40 -18.40 -2.20 -5.20 -8 -14.40 -21.20 -34 -7 -10.20 -32.40 -37 -38 -40 -2.80 -1.60 -9.60 -7 -15.20 -12.40 -11.40 -10.80 -18.20 -16.40 -28.60 -24.20 -4 -3 -8 -6.40 -9.20 -7.60 -1 -1.20 -5 -3.40 -8.40 -4.80 -3.60 -1.40 -6.60 -3.20 -6.60 -4.20 0 -1 -1.60 -1.80 -3.60 -1.80 -2 0 -7.20 -1.60 -11.60 -3.80 -9 -4.20 -31.80 -8 -51.80 -8.40 -8.40 -0.20 -25 1.80 -41 4.80 -29 5.80 -49.20 14.20 -72 30.60 -11.80 8.40 -43 38.20 -48 45.80 -1.80 2.60 -6.20 8.20 -10 12.40 -8.80 9.60 -18.20 22 -21.60 28.60 -9.80 18.60 -19.80 36 -23.80 41.20 -2.60 3.40 -4.60 6.80 -4.60 7.60 0 0.80 -1.80 3.40 -4.20 5.80 -2.20 2.40 -6.40 8.60 -9.20 14 -3 5.20 -6 9.40 -7 9.40 -0.80 0 -1.60 1.40 -1.60 3 0 1.60 -0.60 3 -1.60 3 -0.80 0 -3.20 3.40 -5.40 7.60 -2.20 4 -4.40 7.80 -5 8.40 -1.20 1.20 -5.60 7.60 -17.80 25.20 -4.40 6.60 -22.80 26.20 -40.60 43.80 -64 62.80 -105.60 103 -106.60 103 -0.40 0 -8.80 7.60 -18.60 17 -9.80 9.40 -22 20.20 -27.20 24.20 -18.80 14.40 -61.80 33.80 -99.20 44.80 -8.20 2.40 -17.20 5.20 -20 6.20 -22.20 7.60 -65.60 13.20 -105.40 13.60 -23.20 0.20 -27.60 0.80 -35.80 4.60 -12.80 6.20 -17.20 14.60 -13.80 26 1.20 4.80 4.80 10.20 7.60 12.40 6 4.40 9.60 4.60 39.40 1.40 11.60 -1 26.80 -2.60 34 -3.20 7.20 -0.60 16.20 -1.60 20 -2.40 3.80 -0.80 8.80 -1.60 11 -1.80 9 -1 44.60 -8.80 52.40 -11.60 4.60 -1.60 12.60 -3.60 17.80 -4.40 5.20 -0.80 13.60 -3.20 18.60 -5.40 5.20 -2.20 13.20 -5.60 18.20 -7.80 5 -2.20 15.40 -6.60 23 -10 7.80 -3.20 15.60 -6.80 17.40 -7.80 2 -1 4.40 -1.80 5.60 -1.80 3.60 0 33.60 -17.80 44.20 -26.20 5.20 -4.40 11 -10.40 12.60 -13.60 1.60 -3 6 -7.20 9.60 -9 3.60 -1.60 11.60 -8.60 17.60 -15.40 14 -15.80 67.80 -69.60 110.60 -110.80 18.20 -17.60 37.60 -38 42.80 -45.60 5.20 -7.40 11.20 -15.40 13.20 -17.80 1.80 -2.20 3.40 -4.80 3.40 -5.60 0 -0.80 2.20 -4 4.80 -7 2.60 -3 6 -8 7.40 -10.80 3 -5.60 9 -14 16.80 -22.80 2.80 -3 5 -6.20 5 -7.20 0 -0.80 2.20 -4 5 -7 2.80 -3 5 -6.40 5 -7.40 0 -1 3 -6.80 6.80 -12.40 3.60 -5.80 7.80 -14.20 9.20 -18.40 1.20 -4.40 4.80 -11.60 7.60 -16 5.60 -8.80 59.20 -63 62.20 -63 1.20 0 6.20 -3.60 11.20 -8 5 -4.40 11.60 -8.60 14.60 -9.40 3 -0.60 7.20 -2.40 9.40 -3.80 10.40 -6.40 57.40 -11.20 77 -8 15.40 2.60 18.60 3.80 32.20 11.40 8 4.20 14.80 7.80 15.20 7.80 5.60 0 60.80 51.80 79 74.20 6.60 8 31.60 54.20 31.60 58.40 0 1 3 8.20 6.80 16 3.80 8 8.40 19.40 10.40 25.40 1.80 6 5.40 16 7.80 22 4.40 10.80 5.40 14.40 12 40 2 7.20 4.20 15.20 5.20 18 1 2.80 3.80 12.60 6.60 22 2.60 9.40 6.80 22.40 9 29 2.20 6.60 7.80 24.20 12.20 39 15.40 50.80 29.80 91.80 33.60 95.60 1.20 1.40 2.40 4 2.40 5.60 0 1.60 1.40 2.80 3 2.80 1.80 0 4 2.20 5.40 4.80 1.80 4.20 21.20 19.20 24.80 19.20 0.60 0 5 2.80 9.80 6 4.80 3.40 10.60 6 12.80 6 2.40 0 4.20 0.80 4.20 1.80 0 2 6.40 4.60 21 9 5.60 1.40 12.80 4 16 5.40 3.40 1.40 6.40 2.60 7 2.80 0.60 0 7.40 2 15 4.40 18.60 5.60 56.80 14.60 62.40 14.60 2.40 0 4.80 0.80 5.40 1.60 0.60 1 4 1.60 7.60 1.40 3.60 -0.40 8 0.20 9.60 1 1.60 0.80 12.80 2.20 25 2.80 12 0.80 23 2.40 24.40 3.60 1.80 1.40 2.60 1.40 2.60 -0.40 0 -2.60 24.20 -2 51 0.80 5.60 0.60 13.20 1.60 17.20 2 4 0.40 10 2 13 3.60 4.60 2.20 6.80 2.20 10.60 0.40 2.80 -1.60 8.80 -2 15.40 -1.40z m-2699 -31 c3 -1.20 5.80 -1.60 6.40 -1.20 0.60 0.60 3.80 -0.40 7.20 -2 3.20 -1.80 7.80 -3.20 9.80 -3.20 2.20 0 6 -1.80 8.80 -3.80 2.60 -2.20 7.40 -4.60 10.20 -5.20 3 -0.80 5.40 -2.20 5.40 -3.20 0 -1 1.20 -1.80 2.60 -1.80 5 0 19.40 -20 29.60 -41.20 5 -10.80 6.60 -17.20 7.40 -29 1 -16.60 -0.80 -21.80 -15.60 -46.80 -3.40 -5.40 -6.60 -11.40 -7.40 -13 -0.60 -1.60 -3.80 -6.20 -6.80 -10.20 -3 -3.80 -6.60 -9.40 -8 -12.40 -3.40 -7.60 -17.80 -14 -33.60 -14.80 -18 -1 -34.60 -0.60 -37 1 -2.80 1.60 -7.20 2.60 -11.60 2.60 -2 0 -4 0.80 -4.60 2 -0.80 1 -2.60 1.80 -4.40 1.80 -1.80 0 -4.80 1.20 -6.40 2.60 -1.80 1.60 -6.40 4 -10.20 5.40 -20 7.60 -47.20 32.20 -55.60 50.20 -6 12.60 -6 13.20 -4 28.80 3.80 29.80 17.80 56.60 39.60 76.20 9 8 20 15.80 20 14 0 -0.60 3 0 6.60 1.20 14.60 4.60 42.20 5.60 51.60 2z m2018.60 -3.80 c7 -7.40 8.60 -17.60 4.40 -27.20 -1.20 -2.40 -0.40 -5 2.20 -8 6.40 -7.40 11.40 -25.80 10 -36.80 -2.40 -17 -16.20 -23.60 -25.80 -12.20 -2 2.20 -3.60 5.80 -3.60 8 0 2 -2 5.80 -4.40 8.40 -6 5.80 -7 21.20 -2 29.60 2.60 4.40 2.80 6.40 1 9.40 -4.60 7.40 -6.80 19.60 -4.40 25.40 1 3.20 3.20 6.40 4.40 7.20 5.20 3.20 13.40 1.60 18.20 -3.80z m16.20 -161.40 c2.40 -1.60 7 -7.80 10 -13.60 11 -21 5.60 -57.80 -8.60 -57.60 -7.80 0.20 -10.60 5.60 -17.40 33.20 -3.80 15.20 -7 28.80 -7 30.40 0 1.40 2.20 4.80 4.80 7.40 5.20 5.20 10.40 5.20 18.20 0.20z m14 -129 c3 -4.80 11 -30.60 11 -35.60 0 -2.40 1 -5 2 -5.60 2.60 -1.60 2.60 -14.40 -0.40 -26.60 -3.20 -14 -8.80 -17 -20.40 -10.80 l-8.60 4.60 -2.40 17.40 c-2.80 20.40 -6 36.20 -8.20 40.40 -1.80 3.60 -1.20 16.40 1 19.80 2 3.60 23.40 0.60 26 -3.60z m10.60 -144 c4.60 -6 8.60 -15.60 10.40 -25.40 1 -5.40 3.20 -16.40 5 -24.20 l3.20 -14.60 -5.60 -8.40 c-6.40 -9.60 -13.80 -12 -21.60 -6.80 -3.60 2.40 -5 6 -7 17.60 -1.20 8 -3.60 19.60 -5.20 25.80 -1.60 6 -2.80 16 -2.80 22.20 0 10.40 0.40 11.40 6.60 15.40 6.80 4.40 12.60 3.80 17 -1.60z m-2500.60 -62 c1.40 -2.60 21.40 -5.60 44 -7 4.40 -0.20 9.20 -1 10.60 -1.80 1.20 -1 2.40 -0.60 2.40 0.40 0 3.60 4.60 2.40 10.40 -2.60 10.60 -9.40 8.20 -29.60 -4.40 -36.20 -5.60 -2.80 -7.40 -2.80 -26.80 2 -11.40 2.80 -23.40 5 -26.40 4.80 -3.20 0 -12.60 0.80 -20.80 1.80 -12.20 1.60 -15.40 1.40 -17.20 -0.80 -1.20 -1.60 -3.60 -2.80 -5.20 -2.80 -1.80 0 -4.20 -2.40 -5.40 -5.40 -3.40 -8.40 -8.20 -35.80 -8.20 -46.80 0 -5.60 -0.80 -16 -2 -23.40 -1 -7.40 -3.40 -23.60 -5 -36 -1.60 -12.40 -5.40 -29.40 -8.20 -37.80 -2.80 -8.40 -5.20 -18.80 -5.40 -23.40 l-0.40 -8 9 -1.60 c13.80 -2.40 36 -7 45 -9.40 4.40 -1.20 12 -2.20 17 -2.20 5 0 12.20 -0.80 15.80 -2 4.80 -1.40 7.80 -1.20 9.60 0.20 1.80 1.60 3.40 1.60 5.40 0 1.60 -1.40 5 -1.80 7.60 -1.20 4 1 6.20 -0.20 11.20 -6 7 -7.80 8 -11 3.40 -11 -3.20 0 -3.60 -2 -3 -15.40 0.20 -7.40 -0.40 -8.80 -5.60 -11.40 -5 -2.60 -6.40 -2.60 -8.20 -0.40 -2.60 3 -6 4 -29.20 8.40 -8.80 1.60 -20.40 3.80 -26 4.80 -5.40 1 -16.80 3.20 -25 4.80 -8.20 1.60 -23.80 3 -34.40 3.20 -10.60 0 -21.60 0.80 -24.20 1.80 -3.60 1.40 -6 1.20 -9 -1 -3.60 -2.40 -5.20 -2.40 -13 1 -10 4.40 -12.60 7.80 -14.60 19.80 -1.20 7.40 -0.80 8.20 5 11.60 3.40 2 6.20 4.40 6.20 5.20 0 0.80 2.60 1.60 5.60 1.60 3.20 0 7.20 1.60 8.80 3.60 3.20 3.60 13.60 33.60 13.60 39.20 0 1.80 1.80 9.80 3.80 17.80 6.40 23.20 8 34.40 17.20 120.80 0.60 5.80 2 13 3.20 16 2.60 7 9.60 14.60 13.40 14.60 1.60 0 5.60 2 8.80 4.40 4.60 3 9.80 4.40 20.20 5 7.80 0.40 14.40 1 14.80 1.40 1.40 1.40 14.60 0.80 15.60 -0.60z m320 -57.60 c3 -4.40 3.60 -9.40 3.60 -24.40 0 -17.20 -0.60 -19.40 -4.60 -22.60 -4.80 -3.80 -22.80 -5.20 -25 -1.80 -0.60 1.20 -2 9.40 -3.20 18.60 -1.40 10.60 -3 17.20 -5 18.20 -1.60 1 -2.40 3.60 -2 6.20 1 5 7 13.20 9.80 13.20 1 0 3 1.40 4.60 3 2.80 2.60 4 2.60 10.60 -1 4.20 -2 9.20 -6.20 11.20 -9.40z m-143 0.80 c15.80 -3 32.80 -11.60 35 -17.40 0.60 -1.80 4.20 -8 8 -14 l7.20 -11 -1.40 -17 c-1 -13.20 -2.80 -20.60 -8.20 -33 -4 -8.80 -8.80 -17.80 -10.80 -20.20 -2.20 -2.20 -3.80 -5.60 -3.80 -7.40 0 -1.80 -0.80 -3.40 -2 -3.40 -1 0 -2 -1.20 -2 -2.80 0 -1.60 -1.60 -3.40 -3.80 -4.20 -2 -0.60 -3.60 -2.60 -3.40 -4.60 0.20 -2.20 -1.40 -3.40 -4.80 -3.60 -2.80 -0.20 -10 -0.80 -16.20 -1.40 -8.60 -0.80 -15.20 0 -26.20 3.40 -21.60 6.80 -30.40 13.80 -42 34.60 -15.40 27.80 -18.40 42.20 -12.60 61.80 3 10.40 17.40 27.40 25 29.80 2.20 0.80 4 2 4 3 0 0.80 3 2.80 6.60 4.20 6.80 2.60 7.80 2.80 20.20 4.60 4.40 0.80 8.20 1.60 8.60 2 0.60 0.40 8.60 -0.80 22.60 -3.40z m476.20 -10 c7.40 -6.60 10.80 -17.20 15 -46 3.60 -25.40 3.60 -25.60 -0.40 -29.60 -2.20 -2.20 -7.40 -4.40 -11.40 -5.20 -10.60 -1.60 -18.40 6.60 -20.40 21.60 -0.80 5.80 -3.40 14.80 -5.80 19.80 -3.40 7 -4.40 12.60 -4.20 25 l0 16 6.40 0 c3.60 0.20 7 0.80 7.80 1.60 2.60 2.60 7.80 1.40 13 -3.20z m-174.80 -16 c5.60 -1.40 17.20 -13 21.60 -21.40 5.20 -10 6.20 -26.40 2.20 -36.80 -3.40 -9.20 -20.80 -26 -31.60 -30.80 -6.20 -2.60 -6.80 -5 -2.80 -12 4 -7.20 -1.40 -36.40 -6.80 -36.40 -1 0 -2 -1.20 -2 -2.60 0 -4.20 -10.80 -14 -20.80 -19 -10.20 -5.20 -35.20 -8 -42.20 -4.60 -2.20 1 -11 4.20 -19.40 7.20 -8.40 3 -16.40 6.40 -17.40 7.80 -1.20 1.40 -2.80 6.60 -3.40 11.60 -1.20 8.20 -0.80 9.40 4.40 13.40 6.80 5.40 13.80 4.60 28.20 -2.80 11 -5.80 27 -8 33.40 -4.80 5 2.80 13.80 13.20 14.60 17.60 1.40 8.20 -7.40 18.20 -16 18.20 -1.40 0 -6.20 2.60 -11 6 -4.80 3.20 -9.40 6 -10.60 6.40 -2.40 0.80 4.60 15.60 9.80 20.20 2.80 2.60 7.40 3.60 18.20 3.60 8 0.20 15 -0.20 15.60 -0.80 1.60 -1.80 13.40 3 18.20 7.40 2.60 2.20 5.40 3.80 6 3.20 0.80 -0.60 1.60 2.20 2 6.20 1 10.80 -4.80 16.80 -16.40 17 -5 0.20 -9.20 -0.40 -9.20 -1.40 0 -1.40 -5.80 -4 -11.80 -5 -8.80 -1.60 -12.20 -3.20 -12.20 -5.80 0 -2.20 -1.60 -2.60 -6.40 -1.60 -10 1.80 -13.60 6 -13.60 15.60 0 5.40 1.20 9.40 3.60 11.40 3.80 3.40 12.40 6.60 15.20 5.80 1.20 -0.20 3.80 0.40 6 1.40 15.20 7.20 39.40 9.60 54.60 5.80z m539.60 -45.40 c0.60 -1 2.80 -2 4.80 -2 10.60 0 13 -9.20 13 -50.60 0.20 -20.60 0 -22 -4.60 -25.60 -3.20 -2.60 -7.40 -3.80 -13.60 -3.40 -12.60 0.40 -15.60 5.60 -17.20 28.60 -0.80 10 -1.80 23 -2.60 29 -1 10 -0.60 11.60 4.60 17.20 7.20 8 13.20 10.60 15.60 6.80z m-163 -8.80 c12.80 -4 23.40 -8.80 44.40 -20.60 7.80 -4.20 25.80 -23.60 29.80 -32 5.80 -12 4.60 -22.60 -4.60 -40.60 -7.60 -15 -15.80 -26 -29.80 -39.80 -5 -5 -7.60 -9.60 -8.40 -15 -1.60 -10.60 -8.20 -17.20 -17.20 -17.40 -8.20 0 -28 -4 -31.60 -6.40 -2.60 -1.60 -26.80 3.60 -35.60 7.80 -16.20 7.80 -37.20 48.80 -41 80.20 -4 32.20 1.80 51 21.40 68.20 6.40 5.80 13 10.40 14.60 10.40 1.80 0 5 1.40 7.40 3 11 7.80 30.40 8.60 50.60 2.20z m1665.80 -3 c4 -3.60 6.20 -7.80 6.40 -11.60 0.40 -11 1.60 -19.80 5 -38.60 5 -28.40 4.80 -34.60 -2 -41.80 -3 -3.20 -8.40 -6.40 -11.80 -7 -5.20 -1 -7.20 -0.40 -11.60 4.40 -4.40 4.60 -5.40 8.20 -6.80 21.60 -2 21.60 -2.20 24 -5.20 37.80 -3.20 16 -1.20 26 7.20 34.40 8 8 10.80 8.20 18.80 0.80z m-1337.20 -22.60 c2.60 -1.40 11.80 -2.20 23.40 -1.80 21.20 0.40 26.60 -0.80 35.40 -9.20 8.60 -8 10.20 -11.80 11.80 -29.40 3.40 -37.80 -17.80 -68.20 -52.60 -75.20 -7 -1.40 -16.60 -2 -21.60 -1.20 -5 0.60 -13 1.80 -18 2.40 l-8.80 1.40 0.40 -12.20 c0.40 -14.80 -3.60 -20.40 -13.80 -20.40 -9.20 0 -16.60 8.60 -22.20 25.60 -6.20 18.60 -6 33.20 0.20 39.40 7.20 7.20 19.80 8.40 34.20 2.80 8.40 -3.20 17.60 -4.80 30.20 -5.40 17.40 -0.60 18.40 -0.40 24.60 4.80 11 9.20 15 24.40 10 38.60 -2.60 7.20 -7.60 9.20 -20.20 7.60 -10.80 -1.40 -29.20 -4.80 -34.80 -6.40 -6.20 -2 -13.20 7.60 -12.40 16.80 0.60 6.20 1.80 7.80 8.80 11.20 4.40 2.20 10.80 6 14 8.40 7 5.40 6 5.20 11.40 2.20z m241 -34.40 c3 -1.40 14.40 -3.20 25.60 -3.60 21.80 -1 27.80 -3.60 32.40 -13.40 3.20 -6.40 3 -9.60 -0.60 -23.60 -2 -7.20 -3 -20.80 -3 -37 0 -24.40 -1.60 -41.40 -6.40 -65.60 -1.20 -6 -2 -14.20 -1.80 -18 0.80 -13.20 -3.60 -62 -6 -66.40 -7.40 -13.80 -22.60 -20 -46.80 -19.40 -8.80 0.20 -26.60 0.20 -39.60 0 -25.40 -0.60 -30 0.80 -35 10.20 -3.80 7 -0.20 15 8.80 18.80 7.40 3 38.40 6.60 59.80 6.80 6.60 0 13.20 0.80 14.80 1.80 1.60 1 3.40 7.60 4.20 16.40 0.80 8.20 2.60 25.20 4 37.80 1.20 12.60 3.20 26.60 4.40 31 2 7.60 4.20 43.40 4.20 66.40 0 15.40 -4.20 20.60 -16.20 20.60 -10.20 0 -24.80 4.20 -31.20 9 -2.40 1.80 -4 6.20 -4.80 12.60 l-0.80 9.80 8.60 4.20 c10.20 5 17.80 5.60 25.40 1.60z m-785.40 -37.40 c6.40 -4.40 11.80 -15.20 11.80 -23.20 0 -4 -2 -7.20 -6.80 -11 -8 -6.40 -8.80 -6.60 -16.40 -2.60 -3.20 1.60 -7.40 3 -9.20 3 -4 0 -6.80 4.40 -8.60 14.20 -1.20 6.40 -0.60 8 7.40 16.40 9.20 10 11.60 10.40 21.80 3.20z m499.80 -81.80 c6.40 -4.60 11.20 -6 34.80 -10.20 6.40 -1 13.40 -2.80 15.40 -3.80 2 -1.20 7 -2 11.40 -2 9 0 12.20 -2.80 13.60 -12.40 1.20 -7.20 -5.40 -23 -10.40 -25 -3.40 -1.20 -14 1.40 -48 12 -29.40 9.40 -42.40 16 -48 24.60 -3.20 4.80 -3.20 5.40 0.20 11.40 2 3.60 4.80 7.40 6.40 8.80 4.40 3.60 17.40 1.80 24.60 -3.40z"/>
  <path d="M2764.60 2420.60 c-7 -4.20 -12.60 -8.60 -12.60 -10.20 0 -1.40 -3.60 -4.20 -8 -6.20 -4.40 -2 -10 -5.60 -12.40 -8 -8.60 -8.20 -18.60 -15.60 -27 -20 -4.80 -2.40 -8.60 -5.20 -8.60 -6.20 0 -1.20 -1.20 -2 -2.80 -2 -1.60 0 -5.40 -2.20 -8.60 -4.80 -10.40 -8.60 -19.80 -11.80 -26.80 -9.40 -8.20 2.80 -7.80 3 -7.60 -2.20 1 -23 -0.80 -107.80 -2.40 -108.80 -2.20 -1.20 -0.40 -4.80 2.40 -4.80 1 0 1.80 1.60 1.80 3.80 0 2.80 2 4.20 7.60 5.40 4 0.80 8.60 1.20 10 1 1.40 -0.20 4 1.20 5.80 3 3.20 3.20 3.20 3.20 -1 2 -6 -2 -21.40 13.20 -18.60 18.40 2.40 4.20 14 15.20 27.20 25.40 5.60 4.40 10.40 8.40 11 9.20 1.80 2.20 28.20 21.80 29.60 22 0.80 0 4.60 3.80 8.40 8.40 7.40 9 24.20 23.80 40 35.40 5.20 3.80 10.80 8.80 12 11 1.60 2.20 2.80 12 3.20 23 0.60 25.40 -1.80 27 -22.60 14.60z"/>
  <path d="M2457.20 2303.40 c0.60 -47.80 2 -61.40 6.60 -61.40 2.40 0 10.60 -5.60 27 -18 6.40 -5 15.40 -11.80 20 -15 10.40 -7.80 27.80 -23.40 48.60 -44.40 9.20 -9.20 17.20 -16.60 18.20 -16.60 1 0 3.40 -1.80 5.40 -4 2 -2.20 4.60 -4 5.80 -4 1.20 0 5.60 -2.80 9.80 -6.20 4.20 -3.40 7.80 -6 8.20 -5.60 0.40 0.40 1.20 15.20 2 32.80 0.80 17.60 1.60 33.40 1.60 35 0.20 1.60 0 9 0 16.60 l-0.40 13.40 -12 0 c-9.40 0 -12.80 0.80 -16 4 -2.20 2.20 -4 4.80 -4 5.80 0 3 -41.60 46.80 -48.40 51.20 -3.80 2.20 -11 8.20 -16 13.40 -5.20 5 -14.60 13.40 -21 18.40 -6.40 5 -16.60 15 -22.60 22.20 -6 7.20 -11.40 13 -12.20 13 -0.60 0 -0.80 -22.80 -0.60 -50.60z"/>
  <path d="M2773.40 2334.20 c-6.80 -4.40 -20 -16.20 -22.60 -20.20 -1 -1.60 -4.20 -4.40 -7.20 -6 -5 -2.80 -24.60 -19.40 -35.20 -29.60 -2.60 -2.60 -8.20 -6.80 -12.40 -9.40 -6.40 -4 -17.60 -16.40 -15.60 -17.20 1.60 -0.80 97 -1 100 -0.20 6.40 1.60 8 10.60 6.80 40.60 -1.60 34.80 -3 45.80 -6 45.60 -1.20 0 -4.60 -1.60 -7.80 -3.60z"/>
  <path d="M2407.20 2311 c-1.60 -1.60 -4.80 -3 -7.20 -3 -2.20 0 -7 -1.20 -10.60 -2.80 -5.20 -2.20 -48.80 -30.20 -82.40 -53.20 -17.40 -11.80 -27.60 -18 -29.80 -18 -1.40 0 -6.80 -4.20 -11.80 -9.40 -14.60 -15.20 -22.40 -19.20 -34.80 -18.20 -5.80 0.60 -10.80 0.20 -10.80 -0.80 -1 -6.80 -1.40 -18.60 -1.40 -44.60 0 -16.40 0 -32.60 -0.20 -35.80 0 -3.20 1.80 -9.60 4 -14.40 l4 -8.80 6 7 c3.40 3.80 6.80 7 7.60 7 0.80 0 6.20 4.40 12.20 10 11 10.20 37.40 27.20 50.40 32.60 9.40 4 30.40 18.80 44.20 31.40 5.80 5 13.40 11 17 13 3.40 2.20 9.60 9 13.60 15.40 8 12.60 6.40 12 24.80 7.40 6.60 -1.60 16 -12.20 16 -17.80 0 -1 0.80 -2 2 -2 1.60 0 1.60 38.60 0.20 100.60 -0.20 6.40 -0.80 7.40 -5 7.40 -2.80 0 -6.20 -1.40 -8 -3z"/>
  <path d="M2459.80 2205.60 c0 -1.40 -0.60 -19.20 -1 -39.40 -1 -41.80 -1.60 -40.40 16.20 -50.40 5.60 -3.20 12.60 -8.40 15.60 -11.80 3.20 -3.20 10.40 -9.20 16.20 -13 5.80 -3.80 12.20 -8.80 14.20 -11 2 -2.20 5.60 -4 8.20 -4 6.20 0 23.20 -7.40 26.40 -11.40 1.20 -1.80 2.40 -6.40 2.40 -10 l0 -6.60 13.60 0.20 c7.40 0.20 18.20 0.80 24.20 1.40 12.20 1.60 11.60 0.80 14 22.40 1.80 15.60 1.20 18 -5 18 -5 0 -23.80 15.60 -54.80 45.20 -16 15.20 -32.60 30.40 -44 39.80 -2.60 2.20 -9.80 8.60 -16 14.20 -6 5.60 -13.60 12 -16.80 14.40 -6.40 4.80 -13 5.80 -13.40 2z"/>
  <path d="M2418 2198.80 c0 -2.40 -23.20 -14.80 -27.40 -14.80 -1.40 0 -5.40 -3.20 -9.20 -7 -3.80 -3.80 -7.80 -7 -8.80 -7 -1.20 0 -6.60 -4 -11.80 -9 -5.40 -5 -11.20 -9 -12.80 -9 -1.60 0 -5.40 -2.40 -8.20 -5.60 -3 -3 -10 -7.60 -16 -10.20 -18.80 -8.20 -20.80 -9.20 -21.80 -10.20 -0.60 -0.60 -3.60 -2.80 -7 -4.80 -18.20 -11.20 -37.80 -29 -48 -43.20 -2.20 -3.20 -7.40 -6.80 -11.40 -8.20 -8.40 -2.60 -9.20 -4 -4.60 -7.80 3.40 -2.80 4 -13.20 1 -15 -1 -0.60 -1.80 -10.20 -1.60 -21.60 0 -11.20 -0.80 -26.20 -2 -33.20 -1.20 -7 -1.80 -13.60 -1.20 -14.40 0.60 -1 1 -6.20 1.20 -11.40 0 -14.20 1.60 -15.60 10.80 -10.60 4.40 2.40 11.40 6.80 16 9.80 4.60 3 13.80 9 20.80 13.40 6.80 4.40 16.20 10.60 20.60 13.80 4.60 3.20 15 9.40 23.20 13.80 15.40 8 29.80 18.20 32.80 22.80 0.80 1.40 2.40 2.60 3.40 2.60 4.80 0 44 33.60 44 37.60 0 0.80 4 3.60 8.80 6.20 6.40 3.20 9.20 6.20 10 10 2.20 11 3.20 109.20 1.20 112.20 -1 1.60 -2 2 -2 0.80z"/>
  <path d="M2033.20 2155.20 c-0.60 -2.60 -0.60 -11.80 0 -20.40 0.60 -8.60 1.20 -23.20 1.20 -32.40 0 -19.80 0.60 -20.40 22 -20.40 8 -0.20 21 -1 28.60 -2 30.60 -4.20 43 -4.80 43 -1.80 0 3.80 -49.40 51.60 -69 66.80 -6.60 5.20 -22.40 15 -24 15 -0.40 0 -1 -2.20 -1.80 -4.80z"/>
  <path d="M2456 2064.60 c0 -13 0.80 -24.80 1.60 -26.20 1.40 -1.80 4 -2 12.60 -0.20 11.80 2.20 16.20 3.20 17.80 3.80 0.60 0.20 2 0.20 3 0 1.20 -0.20 6.60 0.20 12.20 1 9 1 10.20 1.80 9.40 5.20 -0.60 2.20 -3.80 5.40 -7 7 -3.20 1.60 -9.20 6 -13.20 9.60 -7.60 6.60 -32.60 23.20 -35 23.20 -0.80 0 -1.40 -10.60 -1.40 -23.40z"/>
  <path d="M2407 2029 c-3.20 -2.60 -7.60 -6.20 -9.40 -8 -2 -1.60 -4 -3 -4.60 -3 -1.20 0 -23.60 -14.40 -25 -16.20 -0.60 -0.80 -4.80 -3.20 -9.40 -5.60 -4.60 -2.20 -9.20 -5.40 -10 -7 -0.80 -1.40 -6 -5 -11.60 -7.80 -5.40 -2.80 -18.80 -11 -29.60 -18.20 -10.80 -7.40 -22.60 -14.80 -26 -16.60 -3.60 -1.80 -10 -6.20 -14.60 -9.80 -4.60 -3.80 -9.20 -6.80 -10.40 -6.80 -1.20 0 -3.40 -1.80 -5 -4.20 -1.60 -2.20 -5.80 -6.20 -9.40 -8.80 -6.60 -4.80 -6.60 -5.20 -6.20 -19.40 0.40 -18.40 1.40 -21.60 6.80 -21.60 2.20 0 6 -1.60 8.20 -3.80 4 -3.60 27.20 -7.60 53 -9.20 l8.60 -0.60 -1 6.60 c-1.60 10.20 4 18.80 14.60 22.40 5 1.80 9.80 4.20 10.60 5.80 0.80 1.60 2.60 2.80 4 2.80 4.80 0 25.40 17.40 39.60 33.40 19.60 22 29.80 29.40 37.80 27.60 l6 -1.40 0 10.60 c0 5.60 -1 18.60 -2.20 28.60 -1.20 10 -2.60 22 -3 26.80 -1.20 9.60 -3.40 10.20 -11.80 3.40z"/>
  <path d="M2414 1920.80 c-9.80 -6.80 -18.80 -14.60 -35 -29.60 -7.60 -7.40 -17.80 -15.60 -22.40 -18.60 -4.80 -3 -8.60 -6 -8.60 -6.80 0 -1.80 71 -1.60 73.80 0.20 2.40 1.40 8.20 31.40 6.40 33 -0.60 0.60 -0.80 5 -0.40 10 0.40 8.40 -2.40 17.20 -5.40 16.80 -0.80 0 -4.60 -2.40 -8.40 -5z"/>
  <path d="M955.40 1397.40 c-8 -2 -16.60 -4.20 -19.40 -4.80 -2.80 -0.60 -7.40 -3 -10.40 -5.40 -3 -2.40 -7.60 -5.80 -10.20 -7.60 -2.80 -2 -6.80 -7.40 -9 -12 -5 -10.40 -6.80 -33.60 -3.40 -40.20 1.20 -2.60 3 -6.80 3.60 -9.60 2.20 -8.20 19.80 -24.80 28.80 -27 3.20 -0.80 6.60 -2 7.60 -3 10.20 -7.80 39.80 -8.80 49.80 -1.60 8.40 6.20 23.20 4 31 -4.60 l5.40 -6.20 7.40 6.60 c10 8.80 19.60 28.80 19.80 41.20 0.20 14.40 -6.20 50.80 -10.20 57.80 -10.20 17.80 -54.20 25.60 -90.80 16.40z"/>
  <path d="M579.20 1105 c-3 -1.60 -6.80 -3 -8.20 -3 -5 0 -18 -12.60 -21.60 -20.60 -2 -4.60 -5.40 -11.80 -7.60 -15.80 -6.80 -13.20 -3.60 -44 5.20 -48 2.40 -1.20 5.60 -4.40 7 -7.40 5 -11 8.20 -14.60 11 -12.20 2 1.80 4.80 0.60 12.40 -4.60 5.20 -3.80 13.20 -8 17.40 -9.40 10.20 -3.20 33.60 -2.80 36.20 0.80 1.20 1.40 6.20 3.20 11.20 4 7.80 1.20 10.20 2.60 14.60 8.80 2.80 4.20 5.20 8.40 5.20 9.20 0 0.80 1.60 4 3.80 6.80 2 3 5.40 10.60 7.20 16.80 3.20 10 3.40 12.60 1.20 20 -1.40 4.60 -4.40 10.60 -6.40 13.40 -2 2.60 -3.80 5.80 -3.80 7 0 2.80 -7 12 -16.60 21.60 -5.20 5.20 -9.40 7.60 -13 7.60 -3.20 0 -6.40 0.80 -7.40 1.80 -1.20 1 -8 2.80 -15.40 3.80 -10.80 1.40 -13.60 1.20 -14.60 -1 -0.80 -2.40 -1.80 -2.40 -5.40 0.20 -5.40 3.80 -5.20 3.80 -12.40 0.20z"/>
  <path d="M329 548 c-14.20 -3.60 -23.40 -10 -26 -17.80 -1.80 -5.80 2.20 -26.60 6.80 -35.60 2.20 -4.40 7.60 -11.20 12.20 -15 8 -7.20 8.40 -7.20 15.20 -4.40 3.80 1.60 7.80 2.40 8.80 1.80 0.80 -0.60 2.80 1.60 4.40 5 1.40 3.20 3.40 5.80 4.60 5.80 1 -0.20 3.20 -0.20 4.40 0 4.40 0.40 10.60 15.60 11.80 29.60 1.20 12.80 1 14.20 -4 20 -4.60 5.60 -9.60 7.60 -23.20 9.60 -1.60 0.20 -4.40 1 -6 1.60 -1.60 0.60 -5.60 0.20 -9 -0.60z"/>
  <path d="M998.80 470.20 c-10.40 -2.60 -20.20 -12 -23.60 -22.40 -4 -12 -2.40 -37 3 -49.60 2.20 -4.80 3.80 -10.40 3.80 -12.20 0 -2 4.80 -8.60 10.60 -14.80 11.20 -11.80 11.40 -11.80 30.40 -8.20 5.80 1.20 19.80 13.60 29 25.80 4.40 5.60 11.40 14.20 16 19.20 9 9.80 10.40 18 5.20 30.20 -8 19.40 -51.40 38 -74.40 32z"/>
 </g>
</svg>